# Blender 4.1.1
# www.blender.org
mtllib BIGShelf.mtl
o Cube
v 11.207867 12.214013 -1.386922
v 11.207867 -0.000000 -1.386921
v 11.207867 12.214013 1.386920
v 11.207867 0.000000 1.386921
v -11.207867 12.214013 -1.386922
v -11.207867 -0.000000 -1.386921
v -11.207867 12.214013 1.386920
v -11.207867 0.000000 1.386921
v 4.448943 -0.000000 -1.386921
v -4.448943 -0.000000 -1.386921
v 4.448943 12.214013 1.386920
v -4.448943 12.214013 1.386920
v -4.448943 0.000000 1.386921
v 4.448943 0.000000 1.386921
v -4.448939 12.214013 -1.386922
v 4.448999 12.214013 -1.386922
v 11.207867 8.500120 -1.386922
v 11.207867 4.190516 -1.386922
v -11.207867 4.190516 1.386921
v -11.207867 8.500120 1.386921
v 11.207867 8.500120 1.386921
v 11.207867 4.190516 1.386921
v -11.207867 8.500120 -1.386922
v -11.207867 4.190516 -1.386922
v -4.448939 8.500120 -1.386922
v -4.448943 4.190516 -1.386922
v 4.448999 8.500120 -1.386922
v 4.448943 4.190516 -1.386922
v 4.448943 4.190516 1.386921
v -4.448943 4.190516 1.386921
v 11.207867 4.190516 2.773842
v 11.095853 0.048542 2.773843
v 4.309453 0.097085 2.773843
v -10.983709 0.097085 2.773843
v -4.309453 0.097085 2.773843
v 4.448943 4.190516 2.773842
v -4.448943 4.190516 2.773842
v -11.207867 4.190516 2.773842
v 4.162230 12.214013 1.386920
v -4.162230 12.214013 1.386920
v -4.162230 12.214013 -1.386922
v 4.162230 12.214013 -1.386922
v -4.162230 8.500120 -1.386922
v 4.162230 8.500120 -1.386922
v -4.157866 4.190516 -1.386922
v 4.161425 4.190516 -1.386922
v 4.162230 12.214013 1.387219
v 4.448943 12.214013 1.387219
v -4.448943 12.214013 1.387219
v -4.448943 8.500120 1.387219
v -4.448943 4.190516 1.387219
v 4.448943 8.500120 1.387219
v 4.448943 4.190516 1.387219
v 4.161425 4.190516 1.387219
v 4.162230 8.500120 1.387219
v -4.162230 12.214013 1.387219
v -4.162230 8.500120 1.387219
v -4.157866 4.190516 1.387219
v 11.207867 8.321486 -1.386922
v -11.207867 8.321486 1.386921
v 11.207867 8.321486 1.386921
v -11.207867 8.321486 -1.386922
v -4.448939 8.321486 -1.386922
v 4.448999 8.321486 -1.386922
v -4.162049 8.321486 -1.386922
v 4.162195 8.321486 -1.386922
v -4.448943 8.321486 1.387219
v 4.448943 8.321486 1.387219
v -4.162195 8.321486 1.387219
v 4.162195 8.321486 1.387219
v -11.207867 8.500120 1.381709
v -4.448943 8.500120 1.381709
v 4.448943 8.500120 1.381709
v 11.207867 8.500120 1.381709
v -4.162230 8.500120 1.381709
v 4.162230 8.500120 1.381709
v 11.207867 8.321486 1.381709
v -11.207867 8.321486 1.381709
v -4.448943 8.321486 1.381709
v 4.448943 8.321486 1.381709
v -4.162049 8.321486 1.381709
v 4.162195 8.321486 1.381709
v 10.885453 12.214013 -1.386922
v 10.885453 12.214013 1.386920
v 10.885453 8.500120 -1.386922
v 10.885453 8.321486 -1.386922
v 10.885453 8.500120 1.381709
v 10.885453 8.321486 1.381709
v -10.872423 12.214013 1.386920
v -10.872423 12.214013 -1.386922
v -10.872423 8.500120 -1.386922
v -10.872423 8.321486 -1.386922
v -10.872423 8.500120 1.381709
v -10.872423 8.321486 1.381709
v -10.872654 4.190516 -1.386922
v 10.888737 4.190516 -1.386922
v 10.885453 12.214013 1.387474
v 11.207867 12.214013 1.387474
v 11.207867 8.500120 1.387474
v 11.207867 8.321486 1.387474
v 11.207867 4.190516 1.387474
v -11.207867 12.214013 1.387474
v -11.207867 8.500120 1.387474
v -11.207867 8.321486 1.387474
v -11.207867 4.190516 1.387474
v 10.888737 4.190516 1.387474
v 10.885453 8.500120 1.387474
v 10.885453 8.321486 1.387474
v -10.872423 12.214013 1.387474
v -10.872423 8.500120 1.387474
v -10.872423 8.321486 1.387474
v -10.872654 4.190516 1.387474
v 10.885453 12.365719 -1.386922
v 11.207867 12.365719 -1.386922
v 10.885453 12.365719 1.386920
v 4.448943 12.365719 1.386920
v -10.872423 12.365719 -1.386922
v -4.448943 12.365719 -1.386922
v 4.162230 12.365719 -1.386922
v 4.448943 12.365719 -1.386922
v -4.448943 12.365719 1.386920
v -4.162230 12.365719 1.387219
v -4.162230 12.365719 -1.386922
v 4.162230 12.365719 1.386920
v -4.162230 12.365719 1.386920
v 4.162230 12.365719 1.387219
v 4.448943 12.365719 1.387219
v -4.448943 12.365719 1.387219
v -10.872423 12.365719 1.386920
v -11.207867 12.365719 -1.386922
v 10.885453 12.365719 1.387474
v 11.207867 12.365719 1.387474
v -11.207867 12.365719 1.387474
v -10.872423 12.365719 1.387474
v 11.207867 3.922702 -1.386922
v 11.207867 3.922702 1.386921
v -11.207867 3.922702 -1.386922
v -11.207867 3.922702 1.386921
v 11.095853 3.874160 2.773842
v 4.309453 3.825618 2.773842
v -4.309453 3.825618 2.773842
v -10.983709 3.825618 2.773842
v -11.207867 3.954808 2.938953
v -11.207867 4.158412 2.938953
v 4.448943 4.158412 2.938953
v -4.448943 4.158412 2.938953
v 11.207867 4.158412 2.938953
v 11.207867 3.954808 2.938953
v 4.448943 3.954808 2.938953
v -4.448943 3.954808 2.938953
v -8.199686 -0.000000 -1.386921
v -8.199686 0.000000 1.386921
v -8.199686 4.190516 1.386921
v -8.199686 0.097085 2.773843
v -8.199686 4.190516 2.773842
v -8.199686 3.825618 2.773842
v -8.199685 4.158412 2.938953
v -8.199685 3.954808 2.938953
v 8.199686 0.000000 1.386921
v 8.199686 -0.000000 -1.386921
v 8.199686 4.190516 1.386921
v 8.199752 0.048542 2.773843
v 8.199686 4.190516 2.773842
v 8.199752 3.874160 2.773842
v 8.199685 4.158412 2.938953
v 8.199685 3.954808 2.938953
v 0.000000 -0.000000 -1.386921
v 0.000000 0.000000 1.386921
v 0.000000 4.190516 1.386921
v 0.000000 0.097085 2.773843
v 0.000000 4.190516 2.773842
v 0.000000 3.825618 2.773842
v 0.000000 4.158412 2.938953
v 0.000000 3.954808 2.938953
v 0.000000 0.000000 2.773843
v 5.303649 0.048542 2.773843
v 5.303649 3.874160 2.773842
v -5.415664 3.825618 2.773842
v -5.415664 0.097085 2.773843
v 0.000000 3.922702 2.773842
v 0.000000 3.744158 2.909921
v 0.000000 0.178544 2.909922
v 4.121150 0.178544 2.909922
v 4.121150 3.744158 2.909921
v -4.121150 3.744158 2.909921
v -4.121150 0.178544 2.909922
v -8.199686 0.000000 2.773843
v -4.448943 0.000000 2.773843
v -4.448943 3.922702 2.773842
v -11.207867 0.000000 2.773843
v -11.207867 3.922702 2.773842
v -8.199686 3.922702 2.773842
v -8.199686 3.758613 2.921335
v -8.199686 0.164089 2.921335
v -5.515727 0.164089 2.921335
v -5.515727 3.758613 2.921335
v -10.883645 0.164089 2.921335
v -10.883645 3.758613 2.921335
v 11.207867 3.922702 2.773842
v 11.207867 0.000000 2.773843
v 8.199686 0.000000 2.773843
v 4.448943 3.922702 2.773842
v 4.448943 0.000000 2.773843
v 8.199686 3.922702 2.773842
v 8.199752 3.815565 2.902793
v 8.199752 0.107137 2.902793
v 11.007137 3.815565 2.902793
v 11.007137 0.107137 2.902793
v 5.392365 3.815565 2.902793
v 5.392365 0.107137 2.902793
v -11.502120 3.960649 1.483494
v -11.502120 4.152569 1.483494
v -11.502120 3.960649 2.773842
v -11.502120 4.152569 2.773842
v 11.407001 4.159801 1.474715
v 11.407001 4.159801 2.773842
v 11.407001 3.953416 1.474715
v 11.407001 3.953417 2.773842
v 10.885453 13.362302 -1.386922
v 11.207867 13.362302 -1.386922
v 10.885453 13.362302 1.386920
v 4.448943 13.362302 1.386920
v -10.872423 13.362302 -1.386922
v -4.448943 13.362302 -1.386922
v 4.162230 13.362302 -1.386922
v 4.448943 13.362302 -1.386922
v -4.448943 13.362302 1.386920
v -4.162230 13.362302 1.387219
v -4.162230 13.362302 -1.386922
v 4.162230 13.362302 1.386920
v -4.162230 13.362302 1.386920
v 4.162230 13.362302 1.387219
v 4.448943 13.362302 1.387219
v -4.448943 13.362302 1.387219
v -10.872423 13.362302 1.386920
v -11.207867 13.362302 -1.386922
v 10.885453 13.362302 1.387474
v 11.207867 13.362302 1.387474
v -11.207867 13.362302 1.387474
v -10.872423 13.362302 1.387474
v 10.885453 12.428845 1.707790
v 4.448943 12.428845 1.707790
v 4.162230 12.428845 1.707790
v -4.162230 12.428845 1.707790
v 4.162230 12.428845 1.708089
v 4.448943 12.428845 1.708089
v -4.448943 12.428845 1.708089
v -4.162230 12.428845 1.708089
v -4.448943 12.428845 1.707790
v -10.872423 12.428845 1.707790
v 10.885453 12.428845 1.708344
v 11.207867 12.428845 1.708344
v -11.207867 12.428845 1.708344
v -10.872423 12.428845 1.708344
v 10.885453 13.299175 1.707790
v 4.448943 13.299175 1.707790
v 4.162230 13.299175 1.707790
v -4.162230 13.299175 1.707790
v 4.162230 13.299175 1.708089
v 4.448943 13.299175 1.708089
v -4.448943 13.299175 1.708089
v -4.162230 13.299175 1.708089
v -4.448943 13.299175 1.707790
v -10.872423 13.299175 1.707790
v 10.885453 13.299175 1.708344
v 11.207867 13.299175 1.708344
v -11.207867 13.299175 1.708344
v -10.872423 13.299175 1.708344
v 0.000000 12.214013 1.386920
v 0.000000 12.214013 -1.386922
v 0.000000 8.500120 -1.386922
v 0.000073 8.321486 -1.386922
v 0.000000 8.500120 1.381709
v 0.000073 8.321486 1.381709
v 0.000000 12.365719 1.386920
v 0.000000 12.365719 -1.386922
v 0.000000 13.362302 1.386920
v 0.000000 13.362302 -1.386922
v 0.000000 12.428845 1.707790
v 0.000000 13.299175 1.707790
v 0.002075 4.190516 -1.386922
v -4.448943 12.214013 -1.386922
v 4.448943 12.214013 -1.386922
v -4.448943 8.500120 -1.386922
v -4.448943 4.190516 -1.386922
v 4.448943 8.500120 -1.386922
v 4.448943 4.190516 -1.386922
v -4.162230 12.214013 -1.386922
v 4.162230 12.214013 -1.386922
v -4.162230 8.500120 -1.386922
v 4.162230 8.500120 -1.386922
v -4.157866 4.190516 -1.386922
v 4.161425 4.190516 -1.386922
v -4.448943 8.321486 -1.386922
v 4.448943 8.321486 -1.386922
v -4.162049 8.321486 -1.386922
v 4.162195 8.321486 -1.386922
v 10.885453 12.214013 -1.386922
v 10.885453 8.500120 -1.386922
v 10.885453 8.321486 -1.386922
v -10.872423 12.214013 -1.386922
v -10.872423 8.500120 -1.386922
v -10.872423 8.321486 -1.386922
v -10.872654 4.190516 -1.386922
v 10.888737 4.190516 -1.386922
v 0.000000 12.214013 -1.386922
v 0.000000 8.500120 -1.386922
v 0.000073 8.321486 -1.386922
v 0.002075 4.190516 -1.386922
vn -0.0000 1.0000 -0.0000
vn -1.0000 -0.0000 -0.0000
vn -0.0000 -1.0000 -0.0000
vn 1.0000 -0.0000 -0.0000
vn -0.0000 -0.0000 -1.0000
vn -0.0000 -0.0000 1.0000
vn 0.1524 0.9883 -0.0000
vn -0.0000 0.9816 0.1909
vn -0.0000 -0.9816 0.1909
vn -1.0000 -0.0002 -0.0000
vn 1.0000 -0.0002 -0.0000
vn 1.0000 0.0010 -0.0000
vn -1.0000 -0.0006 -0.0000
vn -1.0000 0.0002 -0.0000
vn 1.0000 -0.0001 -0.0000
vn -1.0000 -0.0008 -0.0000
vn -0.0000 -0.9812 0.1930
vn -0.3118 -0.0000 -0.9501
vn -0.0000 -0.9105 0.4136
vn -0.0000 -0.9104 0.4137
vn -0.5857 -0.0000 0.8105
vn -0.8275 -0.0000 0.5614
vn -0.0000 -0.8580 0.5136
vn -0.0000 0.8580 0.5136
vn 0.5857 -0.0000 0.8105
vn -0.0000 0.9105 0.4136
vn 0.8275 -0.0000 0.5614
vn -0.8239 -0.0000 0.5668
vn 0.8239 -0.0000 0.5668
vn -0.0000 0.9104 0.4137
vn -0.1279 -0.9918 -0.0000
vn -0.1279 0.9918 -0.0000
vn 0.4893 -0.0000 -0.8721
vn 0.1256 -0.9738 -0.1894
vn 0.1256 0.9738 -0.1894
vn 0.4034 -0.0000 -0.9150
vn 0.1524 -0.9883 -0.0000
vn 0.1497 0.9706 0.1887
vn -0.1497 0.9706 -0.1887
vn -0.6383 -0.0000 -0.7698
vn -0.0000 0.9812 0.1930
vt 0.871259 0.500000
vt 0.875000 0.500000
vt 0.875000 0.750000
vt 0.871259 0.750000
vt 0.555488 0.000000
vt 0.625000 0.000000
vt 0.625000 0.250000
vt 0.555488 0.250000
vt 0.341450 0.500000
vt 0.375000 0.500000
vt 0.375000 0.750000
vt 0.341450 0.750000
vt 0.555488 0.500000
vt 0.625000 0.500000
vt 0.625000 0.750000
vt 0.555488 0.750000
vt 0.444512 0.253739
vt 0.444512 0.250000
vt 0.555488 0.253741
vt 0.625000 0.253741
vt 0.625000 0.317100
vt 0.555488 0.317100
vt 0.555488 0.428508
vt 0.625000 0.428508
vt 0.158550 0.500000
vt 0.192100 0.500000
vt 0.192100 0.750000
vt 0.158550 0.750000
vt 0.250000 0.500000
vt 0.307900 0.500000
vt 0.307900 0.750000
vt 0.250000 0.750000
vt 0.000000 0.000000
vt 0.803508 0.500000
vt 0.807900 0.500000
vt 0.807900 0.750000
vt 0.803508 0.750000
vt 0.444512 0.875000
vt 0.444512 0.932900
vt 0.444512 0.500000
vt 0.444512 0.496440
vt 0.444512 0.432900
vt 0.444512 0.817100
vt 0.444512 0.783550
vt 0.444512 0.750000
vt 0.444512 0.317100
vt 0.444512 0.375027
vt 0.444512 0.321548
vt 0.375000 0.317100
vt 0.375000 0.375000
vt 0.375000 0.250000
vt 0.440070 0.250000
vt 0.375000 0.283550
vt 0.555488 0.375000
vt 0.375000 0.432900
vt 0.440070 0.500000
vt 0.375000 0.466450
vt 0.550888 0.317100
vt 0.440070 0.750000
vt 0.550888 0.500000
vt 0.550888 0.750000
vt 0.440070 0.000000
vt 0.444512 0.000000
vt 0.550888 0.000000
vt 0.550888 0.250000
vt 0.444512 0.466450
vt 0.444512 0.966450
vt 0.444512 1.000000
vt 0.440070 0.966450
vt 0.440070 0.932900
vt 0.440070 0.875000
vt 0.440070 0.817100
vt 0.375000 0.000000
vt 0.692100 0.500000
vt 0.696492 0.500000
vt 0.696492 0.750000
vt 0.692100 0.750000
vt 0.550888 0.432900
vt 0.625000 0.375000
vt 0.555488 0.432900
vt 0.625000 0.432900
vt 0.550888 0.496645
vt 0.625000 0.321492
vt 0.555488 0.321492
vt 0.550888 0.321495
vt 0.550888 0.428507
vt 0.444512 0.428497
vt 0.550888 0.375001
vt 0.550888 0.253741
vt 0.555488 0.496645
vt 0.628355 0.500000
vt 0.628355 0.750000
vt 0.625000 0.496645
vt 0.376610 0.966450
vt 0.376610 0.935401
vt 0.375805 0.815850
vt 0.375805 0.783550
vt 0.438459 0.930400
vt 0.376610 0.930400
vt 0.440070 0.783550
vt 0.440070 1.000000
vt 0.438459 0.997500
vt 0.376610 0.997500
vt 0.125000 0.750000
vt 0.125000 0.500000
vt 0.375805 0.751250
vt 0.376610 0.875000
vt 0.376610 0.819600
vt 0.375000 0.875000
vt 0.375000 0.817100
vt 0.438459 0.819600
vt 0.375000 0.932900
vt 0.438459 0.875000
vt 0.375000 0.966450
vt 0.438459 0.935400
vt 0.375000 1.000000
vt 0.438459 0.966450
vt 0.439264 0.751250
vt 0.375000 0.783550
vt 0.439264 0.815850
vt 0.439264 0.783550
vt 0.750000 0.500000
vt 0.750000 0.750000
s 0
usemtl Material.006
f 90/1/1 5/2/1 7/3/1 89/4/1
f 20/5/2 7/6/2 5/7/2 23/8/2
f 160/9/3 2/10/3 4/11/3 159/12/3
f 17/13/4 1/14/4 3/15/4 21/16/4
f 95/17/1 24/18/1 105/18/1 112/17/1
f 91/19/5 90/20/5 15/21/5 25/22/5
f 44/23/2 55/23/2 47/24/2 42/24/2
f 151/25/3 10/26/3 13/27/3 152/28/3
f 167/29/3 9/30/3 14/31/3 168/32/3
f 11/33/6 84/33/6 115/33/6 116/33/6
f 41/34/1 15/35/1 12/36/1 40/37/1
f 169/38/1 30/39/1 37/39/1 171/38/1
f 18/40/1 96/41/1 28/42/1 29/43/1 161/44/1 22/45/1
f 161/44/1 29/43/1 36/43/1 163/44/1
f 26/46/1 30/39/1 169/38/1 281/47/1 45/48/1
f 10/49/5 26/46/5 45/48/5 281/47/5 167/50/5
f 12/36/4 15/35/4 118/35/4 121/36/4
f 6/51/5 137/52/5 24/18/5 95/17/5 26/46/5 10/49/5 151/53/5
f 271/54/1 273/54/1 76/23/1 44/23/1
f 9/55/5 28/42/5 96/41/5 18/40/5 135/56/5 2/10/5 160/57/5
f 25/22/2 63/58/2 79/58/2 72/22/2
f 135/56/4 18/40/4 22/45/4 136/59/4
f 59/60/4 17/13/4 21/16/4 61/61/4
f 138/62/2 19/63/2 24/18/2 137/52/2
f 60/64/2 20/5/2 23/8/2 62/65/2
f 22/45/7 31/45/7 216/45/7 215/45/7
f 19/63/1 153/66/1 30/39/1 26/46/1 95/17/1 24/18/1
f 155/67/8 38/68/8 144/68/8 157/67/8
f 192/69/9 189/70/9 150/70/9 158/69/9
f 180/71/9 202/72/9 149/72/9 174/71/9
f 152/28/3 13/27/3 188/27/3 187/28/3
f 153/67/1 19/68/1 38/68/1 155/67/1
f 138/62/2 8/73/2 190/73/2 191/62/2
f 159/12/3 4/11/3 200/11/3 201/12/3
f 168/32/3 14/31/3 203/31/3 175/32/3
f 16/74/1 42/75/1 39/76/1 11/77/1
f 16/74/10 11/77/10 116/77/10 120/74/10
f 64/78/4 68/78/4 53/42/4 28/42/4
f 271/54/5 270/79/5 42/24/5 44/23/5
f 55/23/6 52/80/6 48/81/6 47/24/6
f 86/82/3 88/82/3 80/78/3 64/78/3
f 41/83/4 56/83/4 57/84/4 43/84/4
f 67/58/6 69/85/6 57/84/6 50/22/6
f 50/22/6 57/84/6 56/83/6 49/21/6
f 70/86/6 68/78/6 52/80/6 55/23/6
f 90/20/2 109/20/2 134/20/2 117/20/2
f 25/22/2 50/22/2 49/21/2 15/21/2
f 28/42/1 46/87/1 54/87/1 53/42/1
f 66/86/11 44/23/11 55/23/11 70/86/11
f 45/48/1 26/46/1 51/46/1 58/48/1
f 63/58/4 25/22/4 50/22/4 67/58/4
f 65/85/12 69/85/12 58/48/12 45/48/12
f 16/81/4 48/81/4 52/80/4 27/80/4
f 43/84/13 65/85/13 69/85/13 57/84/13
f 26/46/2 51/46/2 67/58/2 63/58/2
f 46/87/14 54/87/14 70/86/14 66/86/14
f 54/87/6 53/42/6 68/78/6 70/86/6
f 51/46/6 58/48/6 69/85/6 67/58/6
f 45/48/5 65/85/5 272/88/5 281/47/5
f 27/80/2 64/78/2 68/78/2 52/80/2
f 19/63/2 60/64/2 62/65/2 24/18/2
f 18/40/4 59/60/4 61/61/4 22/45/4
f 28/42/5 64/78/5 86/82/5 96/41/5
f 62/65/3 92/89/3 111/89/3 104/65/3
f 94/89/6 79/58/6 72/22/6 93/19/6
f 88/82/6 77/60/6 74/13/6 87/90/6
f 274/88/6 82/86/6 76/23/6 273/54/6
f 92/89/1 62/65/1 78/65/1 94/89/1
f 91/19/1 93/19/1 72/22/1 25/22/1
f 64/78/4 27/80/4 73/80/4 80/78/4
f 65/85/12 43/84/12 75/84/12 81/85/12
f 62/65/4 23/8/4 71/8/4 78/65/4
f 272/88/3 274/88/3 81/85/3 65/85/3
f 17/13/2 59/60/2 77/60/2 74/13/2
f 85/90/3 17/13/3 74/13/3 87/90/3
f 44/23/14 66/86/14 82/86/14 76/23/14
f 27/80/1 73/80/1 87/90/1 85/90/1
f 80/78/6 88/82/6 87/90/6 73/80/6
f 59/60/1 86/82/1 88/82/1 77/60/1
f 1/14/1 83/91/1 84/92/1 3/15/1
f 27/80/5 16/81/5 83/93/5 85/90/5
f 23/8/3 91/19/3 93/19/3 71/8/3
f 63/58/3 79/58/3 94/89/3 92/89/3
f 78/65/6 94/89/6 93/19/6 71/8/6
f 59/60/2 18/40/2 101/40/2 100/60/2
f 56/83/6 122/83/6 128/21/6 49/21/6
f 107/90/6 99/13/6 98/14/6 97/93/6
f 95/17/5 92/89/5 63/58/5 26/46/5
f 91/19/1 23/8/1 103/8/1 110/19/1
f 105/18/6 112/17/6 111/89/6 104/65/6
f 103/8/6 110/19/6 109/20/6 102/7/6
f 106/41/6 101/40/6 100/60/6 108/82/6
f 92/89/15 111/89/15 112/17/15 95/17/15
f 41/34/2 40/37/2 125/37/2 123/34/2
f 18/40/1 96/41/1 106/41/1 101/40/1
f 85/90/2 107/90/2 97/93/2 83/93/2
f 96/41/16 106/41/16 108/82/16 86/82/16
f 17/13/1 85/90/1 107/90/1 99/13/1
f 86/82/3 59/60/3 100/60/3 108/82/3
f 102/7/2 133/7/2 130/7/2 5/7/2
f 24/18/4 62/65/4 104/65/4 105/18/4
f 90/20/4 109/20/4 110/19/4 91/19/4
f 1/14/2 17/13/2 99/13/2 98/14/2
f 129/33/17 121/33/17 249/33/17 250/33/17
f 121/36/4 118/35/4 224/35/4 227/36/4
f 115/92/4 113/91/4 219/91/4 221/92/4
f 120/74/2 116/77/2 222/77/2 226/74/2
f 113/93/5 120/81/5 226/81/5 219/93/5
f 119/75/5 225/75/5 226/74/5 120/74/5
f 120/81/2 127/81/2 233/81/2 226/81/2
f 90/1/2 89/4/2 129/4/2 117/1/2
f 109/20/6 134/20/6 133/7/6 102/7/6
f 41/83/2 56/83/2 122/83/2 123/83/2
f 84/92/4 83/91/4 113/91/4 115/92/4
f 48/81/6 127/81/6 126/24/6 47/24/6
f 15/21/5 90/20/5 117/20/5 118/21/5
f 269/33/6 39/33/6 124/33/6 275/33/6
f 1/14/4 114/14/4 132/14/4 98/14/4
f 42/75/5 119/75/5 120/74/5 16/74/5
f 97/93/4 83/93/4 113/93/4 131/93/4
f 15/35/5 118/35/5 123/34/5 41/34/5
f 89/33/6 12/33/6 121/33/6 129/33/6
f 270/79/5 41/83/5 123/83/5 276/79/5
f 5/2/5 130/2/5 117/1/5 90/1/5
f 49/21/4 15/21/4 118/21/4 128/21/4
f 98/14/6 132/14/6 131/93/6 97/93/6
f 47/24/4 42/24/4 119/24/4 126/24/4
f 83/93/5 16/81/5 120/81/5 113/93/5
f 39/76/4 42/75/4 119/75/4 124/76/4
f 83/33/5 113/91/5 114/14/5 1/33/5
f 16/81/10 48/81/10 127/81/10 120/81/10
f 19/63/18 138/62/18 211/62/18 212/63/18
f 154/94/19 179/95/19 195/95/19 194/94/19
f 176/96/20 162/97/20 206/97/20 210/96/20
f 141/98/21 35/99/21 186/99/21 185/98/21
f 4/11/4 136/59/4 199/59/4 200/11/4
f 8/73/2 138/62/2 137/52/2 6/51/2
f 2/10/4 135/56/4 136/59/4 4/11/4
f 174/71/6 173/38/6 146/39/6 150/70/6
f 166/100/6 165/44/6 145/43/6 149/72/6
f 158/69/6 157/67/6 144/68/6 143/101/6
f 171/38/8 37/39/8 146/39/8 173/38/8
f 204/100/9 199/59/9 148/59/9 166/100/9
f 163/44/8 36/43/8 145/43/8 165/44/8
f 38/63/2 191/62/2 143/62/2 144/63/2
f 199/59/4 31/45/4 147/45/4 148/59/4
f 150/70/6 146/39/6 157/67/6 158/69/6
f 142/102/22 34/103/22 197/103/22 198/102/22
f 30/39/1 153/67/1 155/67/1 37/39/1
f 8/104/3 152/28/3 187/28/3 190/104/3
f 191/101/9 192/69/9 158/69/9 143/101/9
f 37/39/8 155/67/8 157/67/8 146/39/8
f 6/105/3 151/25/3 152/28/3 8/104/3
f 31/45/8 163/44/8 165/44/8 147/45/8
f 202/72/9 204/100/9 166/100/9 149/72/9
f 148/59/6 147/45/6 165/44/6 166/100/6
f 162/97/20 32/106/20 208/106/20 206/97/20
f 14/31/3 159/12/3 201/12/3 203/31/3
f 22/45/1 161/44/1 163/44/1 31/45/1
f 9/30/3 160/9/3 159/12/3 14/31/3
f 36/43/8 171/38/8 173/38/8 145/43/8
f 149/72/6 145/43/6 173/38/6 174/71/6
f 35/99/23 170/107/23 182/107/23 186/99/23
f 13/27/3 168/32/3 175/32/3 188/27/3
f 189/70/9 180/71/9 174/71/9 150/70/9
f 29/43/1 169/38/1 171/38/1 36/43/1
f 10/26/3 167/29/3 168/32/3 13/27/3
f 33/108/6 170/107/6 175/109/6 203/110/6
f 140/111/6 33/108/6 203/110/6 202/72/6
f 35/99/6 141/98/6 189/70/6 188/112/6
f 141/98/6 172/113/6 180/71/6 189/70/6
f 170/107/6 35/99/6 188/112/6 175/109/6
f 172/113/6 140/111/6 202/72/6 180/71/6
f 182/107/6 181/113/6 185/98/6 186/99/6
f 183/108/6 184/111/6 181/113/6 182/107/6
f 170/107/23 33/108/23 183/108/23 182/107/23
f 140/111/24 172/113/24 181/113/24 184/111/24
f 172/113/24 141/98/24 185/98/24 181/113/24
f 33/108/25 140/111/25 184/111/25 183/108/25
f 179/95/6 154/94/6 187/114/6 188/112/6
f 178/115/6 179/95/6 188/112/6 189/70/6
f 34/103/6 142/102/6 191/101/6 190/116/6
f 142/102/6 156/117/6 192/69/6 191/101/6
f 154/94/6 34/103/6 190/116/6 187/114/6
f 156/117/6 178/115/6 189/70/6 192/69/6
f 194/94/6 193/117/6 198/102/6 197/103/6
f 195/95/6 196/115/6 193/117/6 194/94/6
f 178/115/26 156/117/26 193/117/26 196/115/26
f 156/117/26 142/102/26 198/102/26 193/117/26
f 179/95/27 178/115/27 196/115/27 195/95/27
f 34/103/19 154/94/19 194/94/19 197/103/19
f 139/118/6 32/106/6 200/11/6 199/59/6
f 32/106/6 162/97/6 201/119/6 200/11/6
f 176/96/6 177/120/6 202/72/6 203/110/6
f 177/120/6 164/121/6 204/100/6 202/72/6
f 162/97/6 176/96/6 203/110/6 201/119/6
f 164/121/6 139/118/6 199/59/6 204/100/6
f 206/97/6 205/121/6 209/120/6 210/96/6
f 208/106/6 207/118/6 205/121/6 206/97/6
f 177/120/28 176/96/28 210/96/28 209/120/28
f 32/106/29 139/118/29 207/118/29 208/106/29
f 139/118/30 164/121/30 205/121/30 207/118/30
f 164/121/30 177/120/30 209/120/30 205/121/30
f 212/63/2 211/62/2 213/62/2 214/63/2
f 138/62/31 191/62/31 213/62/31 211/62/31
f 191/62/6 38/63/6 214/63/6 213/62/6
f 38/68/32 19/68/32 212/68/32 214/68/32
f 213/62/33 214/63/33 144/68/33 143/101/33
f 144/68/34 214/63/34 38/63/34
f 213/33/35 143/33/35 191/33/35
f 217/59/4 215/45/4 216/45/4 218/59/4
f 136/59/36 22/45/36 215/45/36 217/59/36
f 199/59/37 136/59/37 217/59/37 218/59/37
f 31/45/6 199/59/6 218/59/6 216/45/6
f 31/45/38 147/45/38 216/45/38
f 199/59/39 148/59/39 218/59/39
f 216/45/40 218/59/40 148/59/40 147/45/40
f 219/91/1 226/74/1 222/77/1 221/92/1
f 224/35/1 234/35/1 228/34/1 229/34/1
f 278/122/1 229/34/1 231/37/1 277/123/1
f 225/75/1 232/75/1 233/74/1 226/74/1
f 224/35/1 223/1/1 235/4/1 227/36/1
f 219/91/1 237/91/1 238/14/1 220/14/1
f 236/2/1 239/2/1 240/1/1 223/1/1
f 123/83/2 122/83/2 228/83/2 229/83/2
f 130/2/5 236/2/5 223/1/5 117/1/5
f 231/37/2 125/37/2 244/37/2 258/37/2
f 117/1/2 129/4/2 235/4/2 223/1/2
f 118/35/5 224/35/5 229/34/5 123/34/5
f 233/81/2 127/81/2 246/81/2 260/81/2
f 276/79/5 123/83/5 229/83/5 278/79/5
f 221/92/41 222/77/41 256/77/41 255/92/41
f 124/76/4 119/75/4 225/75/4 230/76/4
f 114/14/4 220/14/4 238/14/4 132/14/4
f 123/34/2 125/37/2 231/37/2 229/34/2
f 131/93/4 113/93/4 219/93/4 237/93/4
f 124/76/4 230/76/4 257/76/4 243/76/4
f 133/7/2 239/7/2 236/7/2 130/7/2
f 234/35/41 261/35/41 262/34/41 228/34/41
f 113/91/5 219/91/5 220/14/5 114/14/5
f 117/20/2 134/20/2 240/20/2 223/20/2
f 128/21/4 118/21/4 224/21/4 234/21/4
f 232/75/41 259/75/41 260/74/41 233/74/41
f 126/24/4 119/24/4 225/24/4 232/24/4
f 118/21/5 117/20/5 223/20/5 224/21/5
f 250/33/6 249/33/6 263/33/6 264/33/6
f 279/33/6 243/33/6 257/33/6 280/33/6
f 252/14/6 266/14/6 265/93/6 251/93/6
f 254/20/6 268/20/6 267/7/6 253/7/6
f 246/81/6 260/81/6 259/24/6 245/24/6
f 248/83/6 262/83/6 261/21/6 247/21/6
f 242/33/6 241/33/6 255/33/6 256/33/6
f 131/93/4 237/93/4 265/93/4 251/93/4
f 275/33/17 124/33/17 243/33/17 279/33/17
f 238/14/4 266/14/4 252/14/4 132/14/4
f 133/7/2 253/7/2 267/7/2 239/7/2
f 132/14/17 252/14/17 251/93/17 131/93/17
f 222/77/2 116/77/2 242/77/2 256/77/2
f 227/36/41 235/4/41 264/4/41 263/36/41
f 240/20/2 134/20/2 254/20/2 268/20/2
f 134/20/17 254/20/17 253/7/17 133/7/17
f 115/92/4 221/92/4 255/92/4 241/92/4
f 277/123/41 231/37/41 258/37/41 280/123/41
f 126/24/4 232/24/4 259/24/4 245/24/4
f 121/36/4 227/36/4 263/36/4 249/36/4
f 127/81/17 246/81/17 245/24/17 126/24/17
f 237/91/41 265/91/41 266/14/41 238/14/41
f 128/21/4 234/21/4 261/21/4 247/21/4
f 235/4/2 129/4/2 250/4/2 264/4/2
f 122/83/17 248/83/17 247/21/17 128/21/17
f 239/2/41 267/2/41 268/1/41 240/1/41
f 228/83/2 122/83/2 248/83/2 262/83/2
f 116/33/17 115/33/17 241/33/17 242/33/17
f 230/76/41 277/123/41 280/123/41 257/76/41
f 125/33/17 275/33/17 279/33/17 244/33/17
f 244/33/6 279/33/6 280/33/6 258/33/6
f 119/24/5 276/79/5 278/79/5 225/24/5
f 225/75/1 278/122/1 277/123/1 230/76/1
f 42/24/5 270/79/5 276/79/5 119/24/5
f 40/33/6 269/33/6 275/33/6 125/33/6
f 66/86/3 82/86/3 274/88/3 272/88/3
f 81/85/6 274/88/6 273/54/6 75/84/6
f 43/84/5 41/83/5 270/79/5 271/54/5
f 43/84/1 75/84/1 273/54/1 271/54/1
f 281/47/5 272/88/5 66/86/5 46/87/5
f 167/50/5 281/47/5 46/87/5 28/42/5 9/55/5
f 169/38/1 29/43/1 28/42/1 46/87/1 281/47/1
f 27/33/5 85/33/5 86/33/5 64/33/5
f 86/33/5 85/33/5 17/33/5 59/33/5
f 86/33/5 59/33/5 18/33/5 96/33/5
f 85/33/5 83/33/5 1/33/5 17/33/5
f 44/33/5 42/33/5 16/33/5 27/33/5
f 44/33/5 27/33/5 64/33/5 66/33/5
f 66/33/5 64/33/5 28/33/5 46/33/5
f 272/33/5 271/33/5 44/33/5 66/33/5
f 43/33/5 271/33/5 272/33/5 65/33/5
f 92/33/5 91/33/5 25/33/5 63/33/5
f 15/33/5 41/33/5 43/33/5 25/33/5
f 25/33/5 43/33/5 65/33/5 63/33/5
f 63/33/5 65/33/5 45/33/5 26/33/5
f 92/33/5 95/33/5 24/33/5 62/33/5
f 91/33/5 92/33/5 62/33/5 23/33/5
f 90/33/5 91/33/5 23/33/5 5/33/5
f 302/19/6 284/22/6 282/21/6 301/20/6
f 307/54/6 291/23/6 289/24/6 306/79/6
f 292/48/6 309/47/6 308/88/6 296/85/6
f 287/42/6 305/41/6 300/82/6 295/78/6
f 286/80/6 299/90/6 298/93/6 283/81/6
f 304/17/6 285/46/6 294/58/6 303/89/6
f 290/84/6 307/54/6 306/79/6 288/83/6
f 309/47/6 293/87/6 297/86/6 308/88/6
f 109/33/3 301/20/3 282/21/3 49/33/3
f 56/33/3 288/83/3 306/79/3 269/33/3
f 306/79/3 289/24/3 47/33/3 269/33/3
f 298/93/3 97/33/3 48/33/3 283/81/3
