# Blender 4.1.1
# www.blender.org
mtllib Bord.mtl
o Cube
v 3.531120 4.000000 -0.150000
v 3.531120 0.000000 -0.150000
v 3.274956 3.854911 0.150000
v 3.274956 0.145089 0.150000
v -3.531120 4.000000 -0.150000
v -3.531120 0.000000 -0.150000
v -3.274956 3.854911 0.150000
v -3.274956 0.145089 0.150000
v -3.531120 0.000000 0.150000
v -3.531120 4.000000 0.150000
v 3.531120 4.000000 0.150000
v 3.531120 0.000000 0.150000
v -3.274956 0.145089 -0.098024
v -3.274956 3.854911 -0.098024
v 3.274956 3.854911 -0.098024
v 3.274956 0.145089 -0.098024
vn -0.0000 1.0000 -0.0000
vn 1.0000 -0.0000 -0.0000
vn -1.0000 -0.0000 -0.0000
vn -0.0000 -1.0000 -0.0000
vn -0.0000 -0.0000 -1.0000
vn -0.0000 -0.0000 1.0000
vt 0.625000 0.500000
vt 0.875000 0.500000
vt 0.875000 0.750000
vt 0.625000 0.750000
vt 0.615932 0.990932
vt 0.384068 0.990932
vt 0.375000 0.000000
vt 0.625000 0.000000
vt 0.625000 0.250000
vt 0.375000 0.250000
vt 0.125000 0.500000
vt 0.375000 0.500000
vt 0.375000 0.750000
vt 0.125000 0.750000
vt 0.625000 1.000000
vt 0.375000 1.000000
vt 0.615932 0.759068
vt 0.384068 0.759068
s 0
usemtl Material
f 1/1/1 5/2/1 10/3/1 11/4/1
f 7/5/2 8/6/2 13/6/2 14/5/2
f 9/7/3 10/8/3 5/9/3 6/10/3
f 6/11/4 2/12/4 12/13/4 9/14/4
f 2/12/2 1/1/2 11/4/2 12/13/2
f 6/10/5 5/9/5 1/1/5 2/12/5
f 8/6/6 7/5/6 10/15/6 9/16/6
f 3/17/6 4/18/6 12/13/6 11/4/6
f 7/5/6 3/17/6 11/4/6 10/15/6
f 4/18/6 8/6/6 9/16/6 12/13/6
f 8/6/1 4/18/1 16/18/1 13/6/1
f 4/18/3 3/17/3 15/17/3 16/18/3
f 3/17/4 7/5/4 14/5/4 15/17/4
usemtl Material.001
f 16/18/6 15/17/6 14/5/6 13/6/6
