# Blender 4.1.1
# www.blender.org
mtllib New-Showcase.mtl
o Cube.001
v 3.000000 0.000000 1.000000
v 3.000000 9.530756 1.000000
v 3.000000 0.000000 -1.000000
v 3.000000 9.530756 -1.000000
v 3.000000 9.284855 -1.000000
v 3.000000 0.245902 -1.000000
v 3.000000 9.284855 1.000000
v 3.000000 0.245902 1.000000
v 3.000000 2.473402 -1.000000
v 3.000000 2.303238 -1.000000
v 3.000000 2.473402 1.000000
v 3.000000 2.303238 1.000000
v 3.000000 4.800428 -1.000000
v 3.000000 4.601241 -1.000000
v 3.000000 4.800428 1.000000
v 3.000000 4.601241 1.000000
v 3.000000 7.196410 -1.000000
v 3.000000 6.990591 -1.000000
v 3.000000 7.196410 1.000000
v 3.000000 6.990591 1.000000
v 0.000000 0.000000 -1.000000
v 0.000000 9.530756 -1.000000
v 0.000000 0.000000 1.000000
v 0.000000 9.530756 1.000000
v 0.000000 0.245902 1.000000
v 0.000000 9.284855 1.000000
v 0.000000 0.245902 -1.000000
v 0.000000 9.284855 -1.000000
v 0.000000 2.303238 -1.000000
v 0.000000 2.473402 -1.000000
v 0.000000 2.303238 1.000000
v 0.000000 2.473402 1.000000
v 0.000000 4.601241 -1.000000
v 0.000000 4.800428 -1.000000
v 0.000000 4.601241 1.000000
v 0.000000 4.800428 1.000000
v 0.000000 6.990591 -1.000000
v 0.000000 7.196410 -1.000000
v 0.000000 6.990591 1.000000
v 0.000000 7.196410 1.000000
v 2.807524 2.303238 -1.000000
v 2.807524 0.245902 -1.000000
v 2.807524 2.303238 1.000000
v 2.807524 0.245902 1.000000
v 2.807524 9.284855 -1.000000
v 2.807524 9.284855 1.000000
v 2.807524 4.601241 -1.000000
v 2.807524 2.473402 -1.000000
v 2.807524 4.601241 1.000000
v 2.807524 2.473402 1.000000
v 2.807524 6.990591 -1.000000
v 2.807524 4.800428 -1.000000
v 2.807524 6.990591 1.000000
v 2.807524 4.800428 1.000000
v 2.807524 7.196410 -1.000000
v 2.807524 7.196410 1.000000
v 3.000000 9.284855 -1.000000
v 3.000000 0.245902 -1.000000
v 3.000000 2.473402 -1.000000
v 3.000000 2.303238 -1.000000
v 3.000000 4.800428 -1.000000
v 3.000000 4.601241 -1.000000
v 3.000000 7.196410 -1.000000
v 3.000000 6.990591 -1.000000
v 0.000000 0.245902 -1.000000
v 0.000000 9.284855 -1.000000
v 0.000000 2.303238 -1.000000
v 0.000000 2.473402 -1.000000
v 0.000000 4.601241 -1.000000
v 0.000000 4.800428 -1.000000
v 0.000000 6.990591 -1.000000
v 0.000000 7.196410 -1.000000
v -3.000000 0.000000 1.000000
v -3.000000 9.530756 1.000000
v -3.000000 0.000000 -1.000000
v -3.000000 9.530756 -1.000000
v -3.000000 9.284855 -1.000000
v -3.000000 0.245902 -1.000000
v -3.000000 9.284855 1.000000
v -3.000000 0.245902 1.000000
v -3.000000 2.473402 -1.000000
v -3.000000 2.303238 -1.000000
v -3.000000 2.473402 1.000000
v -3.000000 2.303238 1.000000
v -3.000000 4.800428 -1.000000
v -3.000000 4.601241 -1.000000
v -3.000000 4.800428 1.000000
v -3.000000 4.601241 1.000000
v -3.000000 7.196410 -1.000000
v -3.000000 6.990591 -1.000000
v -3.000000 7.196410 1.000000
v -3.000000 6.990591 1.000000
v -2.807524 2.303238 -1.000000
v -2.807524 0.245902 -1.000000
v -2.807524 2.303238 1.000000
v -2.807524 0.245902 1.000000
v -2.807524 9.284855 -1.000000
v -2.807524 9.284855 1.000000
v -2.807524 4.601241 -1.000000
v -2.807524 2.473402 -1.000000
v -2.807524 4.601241 1.000000
v -2.807524 2.473402 1.000000
v -2.807524 6.990591 -1.000000
v -2.807524 4.800428 -1.000000
v -2.807524 6.990591 1.000000
v -2.807524 4.800428 1.000000
v -2.807524 7.196410 -1.000000
v -2.807524 7.196410 1.000000
v -3.000000 9.284855 -1.000000
v -3.000000 0.245902 -1.000000
v -3.000000 2.473402 -1.000000
v -3.000000 2.303238 -1.000000
v -3.000000 4.800428 -1.000000
v -3.000000 4.601241 -1.000000
v -3.000000 7.196410 -1.000000
v -3.000000 6.990591 -1.000000
vn -0.0000 -0.0000 -1.0000
vn 1.0000 -0.0000 -0.0000
vn -0.0000 -1.0000 -0.0000
vn -0.0000 -0.0000 1.0000
vn -0.0000 1.0000 -0.0000
vn -1.0000 -0.0000 -0.0000
vt 0.618169 0.375000
vt 0.625000 0.375000
vt 0.625000 0.500000
vt 0.618169 0.500000
vt 0.625000 0.750000
vt 0.618169 0.750000
vt 0.250000 0.500000
vt 0.375000 0.500000
vt 0.375000 0.750000
vt 0.250000 0.750000
vt 0.381831 0.500000
vt 0.381831 0.750000
vt 0.000000 0.000000
vt 0.375000 0.375000
vt 0.381831 0.375000
vt 0.613842 0.375000
vt 0.613842 0.500000
vt 0.497637 0.375000
vt 0.497637 0.500000
vt 0.502363 0.375000
vt 0.502363 0.500000
vt 0.502363 0.750000
vt 0.497637 0.750000
vt 0.541175 0.375000
vt 0.541175 0.500000
vt 0.579777 0.375000
vt 0.579777 0.500000
vt 0.579777 0.750000
vt 0.541175 0.750000
vt 0.601045 0.375000
vt 0.601045 0.500000
vt 0.613842 0.750000
vt 0.601045 0.750000
vt 0.613842 0.875000
vt 0.601045 0.875000
vt 0.541175 0.875000
vt 0.579777 0.875000
vt 0.381831 0.875000
vt 0.502363 0.875000
vt 0.497637 0.875000
vt 0.375000 0.875000
vt 0.750000 0.500000
vt 0.750000 0.750000
vt 0.625000 0.875000
vt 0.618169 0.875000
s 0
f 28/1/1 22/2/1 4/3/1 5/4/1
f 5/4/2 4/3/2 2/5/2 7/6/2
f 21/7/3 3/8/3 1/9/3 23/10/3
f 3/8/2 6/11/2 8/12/2 1/9/2
f 20/13/4 53/13/4 54/13/4 15/13/4
f 21/14/1 27/15/1 6/11/1 3/8/1
f 38/16/1 28/1/1 5/4/1 17/17/1
f 27/15/1 29/18/1 10/19/1 6/11/1
f 29/18/1 30/20/1 9/21/1 10/19/1
f 12/13/4 43/13/4 44/13/4 8/13/4
f 10/19/2 9/21/2 11/22/2 12/23/2
f 30/20/1 33/24/1 14/25/1 9/21/1
f 33/24/1 34/26/1 13/27/1 14/25/1
f 16/13/4 49/13/4 50/13/4 11/13/4
f 14/25/2 13/27/2 15/28/2 16/29/2
f 34/26/1 37/30/1 18/31/1 13/27/1
f 37/30/1 38/16/1 17/17/1 18/31/1
f 17/17/4 5/4/4 45/4/4 55/17/4
f 18/31/2 17/17/2 19/32/2 20/33/2
f 20/33/4 19/32/4 40/34/4 39/35/4
f 14/25/3 16/29/3 35/36/3 33/24/3
f 16/29/4 15/28/4 36/37/4 35/36/4
f 6/11/5 27/15/5 25/38/5 8/12/5
f 12/23/4 11/22/4 32/39/4 31/40/4
f 10/19/3 12/23/3 31/40/3 29/18/3
f 9/21/5 30/20/5 32/39/5 11/22/5
f 1/9/4 8/12/4 25/38/4 23/41/4
f 4/3/5 22/42/5 24/43/5 2/5/5
f 7/6/4 2/5/4 24/44/4 26/45/4
f 13/27/5 34/26/5 36/37/5 15/28/5
f 18/31/3 20/33/3 39/35/3 37/30/3
f 19/32/5 17/17/5 38/16/5 40/34/5
f 7/6/3 26/45/3 28/1/3 5/4/3
f 55/17/6 56/32/6 46/6/6 45/4/6
f 42/11/6 44/12/6 43/23/6 41/19/6
f 48/21/6 50/22/6 49/29/6 47/25/6
f 52/27/6 54/28/6 53/33/6 51/31/6
f 7/13/4 46/13/4 56/13/4 19/13/4
f 8/12/5 6/11/5 42/11/5 44/12/5
f 5/4/3 7/6/3 46/6/3 45/4/3
f 10/19/3 12/23/3 43/23/3 41/19/3
f 14/25/3 16/29/3 49/29/3 47/25/3
f 11/22/5 9/21/5 48/21/5 50/22/5
f 18/31/3 20/33/3 53/33/3 51/31/3
f 9/21/4 14/25/4 47/25/4 48/21/4
f 15/28/5 13/27/5 52/27/5 54/28/5
f 6/11/4 10/19/4 41/19/4 42/11/4
f 13/27/4 18/31/4 51/31/4 52/27/4
f 19/32/5 17/17/5 55/17/5 56/32/5
f 7/6/2 19/32/2 17/17/2 5/4/2
f 13/27/2 18/31/2 20/13/2 15/28/2
f 9/21/2 14/25/2 16/13/2 11/22/2
f 6/11/2 10/19/2 12/13/2 8/12/2
f 72/16/4 63/17/4 57/4/4 66/1/4
f 65/15/4 58/11/4 60/19/4 67/18/4
f 68/20/4 59/21/4 62/25/4 69/24/4
f 70/26/4 61/27/4 64/31/4 71/30/4
f 28/1/1 77/4/1 76/3/1 22/2/1
f 77/4/6 79/6/6 74/5/6 76/3/6
f 21/7/3 23/10/3 73/9/3 75/8/3
f 75/8/6 73/9/6 80/12/6 78/11/6
f 92/13/4 87/13/4 106/13/4 105/13/4
f 21/14/1 75/8/1 78/11/1 27/15/1
f 38/16/1 89/17/1 77/4/1 28/1/1
f 27/15/1 78/11/1 82/19/1 29/18/1
f 29/18/1 82/19/1 81/21/1 30/20/1
f 84/13/4 80/13/4 96/13/4 95/13/4
f 82/19/6 84/23/6 83/22/6 81/21/6
f 30/20/1 81/21/1 86/25/1 33/24/1
f 33/24/1 86/25/1 85/27/1 34/26/1
f 88/13/4 83/13/4 102/13/4 101/13/4
f 86/25/6 88/29/6 87/28/6 85/27/6
f 34/26/1 85/27/1 90/31/1 37/30/1
f 37/30/1 90/31/1 89/17/1 38/16/1
f 89/17/4 107/17/4 97/4/4 77/4/4
f 90/31/6 92/33/6 91/32/6 89/17/6
f 92/33/4 39/35/4 40/34/4 91/32/4
f 86/25/3 33/24/3 35/36/3 88/29/3
f 88/29/4 35/36/4 36/37/4 87/28/4
f 78/11/5 80/12/5 25/38/5 27/15/5
f 84/23/4 31/40/4 32/39/4 83/22/4
f 82/19/3 29/18/3 31/40/3 84/23/3
f 81/21/5 83/22/5 32/39/5 30/20/5
f 73/9/4 23/41/4 25/38/4 80/12/4
f 76/3/5 74/5/5 24/43/5 22/42/5
f 79/6/4 26/45/4 24/44/4 74/5/4
f 85/27/5 87/28/5 36/37/5 34/26/5
f 90/31/3 37/30/3 39/35/3 92/33/3
f 91/32/5 40/34/5 38/16/5 89/17/5
f 79/6/3 77/4/3 28/1/3 26/45/3
f 107/17/2 97/4/2 98/6/2 108/32/2
f 94/11/2 93/19/2 95/23/2 96/12/2
f 100/21/2 99/25/2 101/29/2 102/22/2
f 104/27/2 103/31/2 105/33/2 106/28/2
f 79/13/4 91/13/4 108/13/4 98/13/4
f 80/12/5 96/12/5 94/11/5 78/11/5
f 77/4/3 97/4/3 98/6/3 79/6/3
f 82/19/3 93/19/3 95/23/3 84/23/3
f 86/25/3 99/25/3 101/29/3 88/29/3
f 83/22/5 102/22/5 100/21/5 81/21/5
f 90/31/3 103/31/3 105/33/3 92/33/3
f 81/21/4 100/21/4 99/25/4 86/25/4
f 87/28/5 106/28/5 104/27/5 85/27/5
f 78/11/4 94/11/4 93/19/4 82/19/4
f 85/27/4 104/27/4 103/31/4 90/31/4
f 91/32/5 108/32/5 107/17/5 89/17/5
f 79/6/6 77/4/6 89/17/6 91/32/6
f 85/27/6 87/28/6 92/13/6 90/31/6
f 81/21/6 83/22/6 88/13/6 86/25/6
f 78/11/6 80/12/6 84/13/6 82/19/6
f 72/16/4 66/1/4 109/4/4 115/17/4
f 65/15/4 67/18/4 112/19/4 110/11/4
f 68/20/4 69/24/4 114/25/4 111/21/4
f 70/26/4 71/30/4 116/31/4 113/27/4
