# Blender 4.1.1
# www.blender.org
mtllib pi.mtl
o Cylinder
v 0.000000 0.020266 -0.176779
v 0.000000 2.512395 -0.170794
v 0.136054 0.020266 -0.125001
v 0.131448 2.512395 -0.120770
v 0.192409 0.020266 0.000000
v 0.185896 2.512395 0.000000
v 0.136054 0.020266 0.125001
v 0.131448 2.512395 0.120770
v 0.000000 0.020266 0.176779
v 0.000000 2.512395 0.170794
v -0.136054 0.020266 0.125001
v -0.131448 2.512395 0.120770
v -0.192409 0.020266 0.000000
v -0.185896 2.512395 0.000000
v -0.136054 0.020266 -0.125001
v -0.131448 2.512395 -0.120770
v -0.000000 0.569104 -0.165935
v -0.000000 0.864308 -0.186947
v -0.000000 1.266331 -0.219640
v -0.000000 1.668353 -0.186947
v -0.000000 1.963558 -0.165935
v 0.117334 1.963558 -0.117334
v 0.132192 1.668353 -0.132192
v 0.155309 1.266331 -0.155309
v 0.132192 0.864308 -0.132192
v 0.117334 0.569104 -0.117334
v 0.165935 1.963558 0.000000
v 0.186947 1.668353 0.000000
v 0.219640 1.266331 0.000000
v 0.186947 0.864308 0.000000
v 0.165935 0.569104 0.000000
v 0.117334 1.963558 0.117334
v 0.132192 1.668353 0.132192
v 0.155309 1.266331 0.155309
v 0.132192 0.864308 0.132192
v 0.117334 0.569104 0.117334
v -0.000000 1.963558 0.165935
v -0.000000 1.668353 0.186947
v -0.000000 1.266331 0.219640
v -0.000000 0.864308 0.186947
v -0.000000 0.569104 0.165935
v -0.117334 1.963558 0.117334
v -0.132192 1.668353 0.132192
v -0.155309 1.266331 0.155309
v -0.132192 0.864308 0.132192
v -0.117334 0.569104 0.117334
v -0.165935 1.963558 0.000000
v -0.186947 1.668353 0.000000
v -0.219640 1.266331 0.000000
v -0.186947 0.864308 0.000000
v -0.165935 0.569104 0.000000
v -0.117334 1.963558 -0.117334
v -0.132192 1.668353 -0.132192
v -0.155309 1.266331 -0.155309
v -0.132192 0.864308 -0.132192
v -0.117334 0.569104 -0.117334
vn 0.3685 -0.0118 -0.9296
vn 0.9173 -0.0297 -0.3970
vn 0.9173 -0.0297 0.3970
vn 0.3685 -0.0118 0.9296
vn -0.3685 -0.0118 0.9296
vn -0.9173 -0.0297 0.3970
vn -0.0000 1.0000 -0.0000
vn -0.9173 -0.0297 -0.3970
vn -0.3685 -0.0118 -0.9296
vn -0.0000 -1.0000 -0.0000
vn -0.3682 0.0220 -0.9295
vn -0.3819 -0.0656 -0.9219
vn -0.3816 -0.0749 -0.9213
vn -0.3816 0.0749 -0.9213
vn -0.3819 0.0656 -0.9219
vn -0.9169 0.0405 -0.3971
vn -0.9219 -0.0656 -0.3819
vn -0.9213 -0.0749 -0.3816
vn -0.9213 0.0749 -0.3816
vn -0.9219 0.0656 -0.3819
vn -0.9169 0.0405 0.3971
vn -0.9219 -0.0656 0.3819
vn -0.9213 -0.0749 0.3816
vn -0.9213 0.0749 0.3816
vn -0.9219 0.0656 0.3819
vn -0.3682 0.0220 0.9295
vn -0.3819 -0.0656 0.9219
vn -0.3816 -0.0749 0.9213
vn -0.3816 0.0749 0.9213
vn -0.3819 0.0656 0.9219
vn 0.3682 0.0220 0.9295
vn 0.3819 -0.0656 0.9219
vn 0.3816 -0.0749 0.9213
vn 0.3816 0.0749 0.9213
vn 0.3819 0.0656 0.9219
vn 0.9169 0.0405 0.3971
vn 0.9219 -0.0656 0.3819
vn 0.9213 -0.0749 0.3816
vn 0.9213 0.0749 0.3816
vn 0.9219 0.0656 0.3819
vn 0.9169 0.0405 -0.3971
vn 0.9219 -0.0656 -0.3819
vn 0.9213 -0.0749 -0.3816
vn 0.9213 0.0749 -0.3816
vn 0.9219 0.0656 -0.3819
vn 0.3682 0.0220 -0.9295
vn 0.3819 -0.0656 -0.9219
vn 0.3816 -0.0749 -0.9213
vn 0.3816 0.0749 -0.9213
vn 0.3819 0.0656 -0.9219
vt 1.000000 0.916667
vt 1.000000 1.000000
vt 0.875000 1.000000
vt 0.875000 0.916667
vt 0.750000 1.000000
vt 0.750000 0.916667
vt 0.625000 1.000000
vt 0.625000 0.916667
vt 0.500000 1.000000
vt 0.500000 0.916667
vt 0.375000 1.000000
vt 0.375000 0.916667
vt 0.250000 1.000000
vt 0.250000 0.916667
vt 0.419706 0.419706
vt 0.250000 0.490000
vt 0.080294 0.419706
vt 0.010000 0.250000
vt 0.080294 0.080294
vt 0.250000 0.010000
vt 0.419706 0.080294
vt 0.490000 0.250000
vt 0.125000 1.000000
vt 0.125000 0.916667
vt 0.000000 1.000000
vt 0.000000 0.916667
vt 0.750000 0.490000
vt 0.919706 0.419706
vt 0.990000 0.250000
vt 0.919706 0.080294
vt 0.750000 0.010000
vt 0.580294 0.080294
vt 0.510000 0.250000
vt 0.580294 0.419706
vt 0.125000 0.500000
vt 0.125000 0.583333
vt 0.000000 0.583333
vt 0.000000 0.500000
vt 0.125000 0.666667
vt 0.000000 0.666667
vt 0.125000 0.750000
vt 0.000000 0.750000
vt 0.125000 0.833333
vt 0.000000 0.833333
vt 0.250000 0.500000
vt 0.250000 0.583333
vt 0.250000 0.666667
vt 0.250000 0.750000
vt 0.250000 0.833333
vt 0.375000 0.500000
vt 0.375000 0.583333
vt 0.375000 0.666667
vt 0.375000 0.750000
vt 0.375000 0.833333
vt 0.500000 0.500000
vt 0.500000 0.583333
vt 0.500000 0.666667
vt 0.500000 0.750000
vt 0.500000 0.833333
vt 0.625000 0.500000
vt 0.625000 0.583333
vt 0.625000 0.666667
vt 0.625000 0.750000
vt 0.625000 0.833333
vt 0.750000 0.500000
vt 0.750000 0.583333
vt 0.750000 0.666667
vt 0.750000 0.750000
vt 0.750000 0.833333
vt 0.875000 0.500000
vt 0.875000 0.583333
vt 0.875000 0.666667
vt 0.875000 0.750000
vt 0.875000 0.833333
vt 1.000000 0.500000
vt 1.000000 0.583333
vt 1.000000 0.666667
vt 1.000000 0.750000
vt 1.000000 0.833333
s 0
f 21/1/1 2/2/1 4/3/1 22/4/1
f 22/4/2 4/3/2 6/5/2 27/6/2
f 27/6/3 6/5/3 8/7/3 32/8/3
f 32/8/4 8/7/4 10/9/4 37/10/4
f 37/10/5 10/9/5 12/11/5 42/12/5
f 42/12/6 12/11/6 14/13/6 47/14/6
f 4/15/7 2/16/7 16/17/7 14/18/7 12/19/7 10/20/7 8/21/7 6/22/7
f 47/14/8 14/13/8 16/23/8 52/24/8
f 52/24/9 16/23/9 2/25/9 21/26/9
f 1/27/10 3/28/10 5/29/10 7/30/10 9/31/10 11/32/10 13/33/10 15/34/10
f 15/35/11 56/36/11 17/37/11 1/38/11
f 56/36/12 55/39/12 18/40/12 17/37/12
f 55/39/13 54/41/13 19/42/13 18/40/13
f 54/41/14 53/43/14 20/44/14 19/42/14
f 53/43/15 52/24/15 21/26/15 20/44/15
f 13/45/16 51/46/16 56/36/16 15/35/16
f 51/46/17 50/47/17 55/39/17 56/36/17
f 50/47/18 49/48/18 54/41/18 55/39/18
f 49/48/19 48/49/19 53/43/19 54/41/19
f 48/49/20 47/14/20 52/24/20 53/43/20
f 11/50/21 46/51/21 51/46/21 13/45/21
f 46/51/22 45/52/22 50/47/22 51/46/22
f 45/52/23 44/53/23 49/48/23 50/47/23
f 44/53/24 43/54/24 48/49/24 49/48/24
f 43/54/25 42/12/25 47/14/25 48/49/25
f 9/55/26 41/56/26 46/51/26 11/50/26
f 41/56/27 40/57/27 45/52/27 46/51/27
f 40/57/28 39/58/28 44/53/28 45/52/28
f 39/58/29 38/59/29 43/54/29 44/53/29
f 38/59/30 37/10/30 42/12/30 43/54/30
f 7/60/31 36/61/31 41/56/31 9/55/31
f 36/61/32 35/62/32 40/57/32 41/56/32
f 35/62/33 34/63/33 39/58/33 40/57/33
f 34/63/34 33/64/34 38/59/34 39/58/34
f 33/64/35 32/8/35 37/10/35 38/59/35
f 5/65/36 31/66/36 36/61/36 7/60/36
f 31/66/37 30/67/37 35/62/37 36/61/37
f 30/67/38 29/68/38 34/63/38 35/62/38
f 29/68/39 28/69/39 33/64/39 34/63/39
f 28/69/40 27/6/40 32/8/40 33/64/40
f 3/70/41 26/71/41 31/66/41 5/65/41
f 26/71/42 25/72/42 30/67/42 31/66/42
f 25/72/43 24/73/43 29/68/43 30/67/43
f 24/73/44 23/74/44 28/69/44 29/68/44
f 23/74/45 22/4/45 27/6/45 28/69/45
f 1/75/46 17/76/46 26/71/46 3/70/46
f 17/76/47 18/77/47 25/72/47 26/71/47
f 18/77/48 19/78/48 24/73/48 25/72/48
f 19/78/49 20/79/49 23/74/49 24/73/49
f 20/79/50 21/1/50 22/4/50 23/74/50
