# Blender 4.1.1
# www.blender.org
mtllib Room-Sign.mtl
o Cube
v 4.246574 4.644026 -0.093047
v 4.246574 1.261719 -0.093047
v 4.246574 4.644026 0.093047
v 4.246574 1.261719 0.093047
v -4.246574 4.644026 -0.093047
v -4.246574 1.261719 -0.093047
v -4.246574 4.644026 0.093047
v -4.246574 1.261719 0.093047
v 4.473501 0.952873 -0.500000
v -4.473501 0.952873 -0.500000
v 4.473501 4.952873 -0.500000
v -4.473501 0.952873 0.500000
v -4.473501 4.952873 0.500000
v 4.473501 4.952873 0.500000
v 4.473501 0.952873 0.500000
v -4.473501 4.952873 -0.500000
v 4.252109 1.252029 -0.500000
v -4.252109 1.252029 -0.500000
v 4.252109 4.653716 -0.500000
v -4.252109 1.252029 0.500000
v -4.252109 4.653716 0.500000
v 4.252109 4.653716 0.500000
v 4.252109 1.252029 0.500000
v -4.252109 4.653716 -0.500000
v 5.000000 4.336175 -0.500000
v 5.000000 1.569570 -0.500000
v -5.000000 1.569570 0.500000
v -5.000000 4.336175 0.500000
v 5.000000 4.336175 0.500000
v 5.000000 1.569570 0.500000
v -5.000000 4.336175 -0.500000
v -5.000000 1.569570 -0.500000
v 4.252109 4.129263 -0.500000
v 4.252109 1.776482 -0.500000
v -4.252109 1.776483 0.500000
v -4.252109 4.129263 0.500000
v 4.252109 4.129263 0.500000
v 4.252109 1.776482 0.500000
v -4.252109 4.129263 -0.500000
v -4.252109 1.776482 -0.500000
v 4.246574 4.122561 -0.093047
v 4.246574 1.783184 -0.093047
v -4.246574 1.783185 0.093047
v -4.246574 4.122561 0.093047
v 4.246574 4.122561 0.093047
v 4.246574 1.783184 0.093047
v -4.246574 4.122561 -0.093047
v -4.246574 1.783184 -0.093047
v 5.616176 2.952873 -0.500000
v -5.616176 2.952873 0.500000
v 5.616176 2.952873 0.500000
v -5.616176 2.952873 -0.500000
v 4.252109 2.952873 -0.500000
v -4.252109 2.952873 0.500000
v 4.252109 2.952873 0.500000
v -4.252109 2.952873 -0.500000
v 4.246574 2.952873 -0.093047
v -4.246574 2.952873 0.093047
v 4.246574 2.952873 0.093047
v -4.246574 2.952873 -0.093047
v 3.001862 0.952873 -0.238725
v -2.999356 0.952873 -0.238725
v 3.002591 4.952873 0.231727
v -3.002591 4.952873 0.231727
v -2.999356 0.952873 0.238725
v 3.001862 0.952873 0.238725
v -3.002591 4.952873 -0.231727
v 3.002591 4.952873 -0.231727
v 3.107111 1.252029 -0.500000
v -3.107111 1.252029 -0.500000
v 3.107111 4.653716 0.500000
v -3.107111 4.653716 0.500000
v -3.107111 1.252029 0.500000
v 3.107111 1.252029 0.500000
v -3.107111 4.653716 -0.500000
v 3.107111 4.653716 -0.500000
v 3.103067 1.261719 -0.093047
v -3.103068 1.261719 -0.093047
v 3.103067 4.644026 0.093047
v -3.103068 4.644026 0.093047
v -3.103067 1.261719 0.093047
v 3.103068 1.261719 0.093047
v -3.103067 4.644026 -0.093047
v 3.103068 4.644026 -0.093047
v -3.103067 1.783184 -0.093047
v 3.103068 1.783184 -0.093047
v -3.103067 4.122561 -0.093047
v 3.103068 4.122561 -0.093047
v 3.103067 1.783185 0.093047
v -3.103068 1.783185 0.093047
v 3.103067 4.122561 0.093047
v -3.103068 4.122561 0.093047
v 3.103067 2.952873 0.093047
v -3.103068 2.952873 0.093047
v -3.103067 2.952873 -0.093047
v 3.103068 2.952873 -0.093047
v 2.626969 0.952873 -0.238725
v -2.624464 0.952873 -0.238725
v 2.624665 4.952873 0.231727
v -2.624665 4.952873 0.231727
v -2.624464 0.952873 0.238725
v 2.626969 0.952873 0.238725
v -2.624665 4.952873 -0.231727
v 2.624665 4.952873 -0.231727
v 2.523167 1.252029 -0.500000
v -2.523168 1.252029 -0.500000
v 2.523167 4.653716 0.500000
v -2.523168 4.653716 0.500000
v -2.523167 1.252029 0.500000
v 2.523168 1.252029 0.500000
v -2.523167 4.653716 -0.500000
v 2.523168 4.653716 -0.500000
v 2.519882 1.261719 -0.093047
v -2.519884 1.261719 -0.093047
v 2.519882 4.644026 0.093047
v -2.519884 4.644026 0.093047
v -2.519882 1.261719 0.093047
v 2.519884 1.261719 0.093047
v -2.519882 4.644026 -0.093047
v 2.519884 4.644026 -0.093047
v -2.519882 1.783184 -0.093047
v 2.519884 1.783184 -0.093047
v -2.519882 4.122561 -0.093047
v 2.519884 4.122561 -0.093047
v 2.519882 1.783185 0.093047
v -2.519884 1.783185 0.093047
v 2.519882 4.122561 0.093047
v -2.519884 4.122561 0.093047
v 2.519882 2.952873 0.093047
v -2.519884 2.952873 0.093047
v -2.519882 2.952873 -0.093047
v 2.519884 2.952873 -0.093047
v -2.521813 4.952873 0.500000
v -3.105443 4.952873 0.500000
v 2.521813 4.952873 -0.500000
v 3.105443 4.952873 -0.500000
v 3.105443 4.952873 0.500000
v -3.105443 4.952873 -0.500000
v 2.521813 4.952873 0.500000
v -2.521813 4.952873 -0.500000
v -2.624665 6.960201 0.231727
v -3.002591 6.960201 0.231727
v 2.624665 6.960201 -0.231727
v 3.002591 6.960201 -0.231727
v 3.002591 6.960201 0.231727
v -3.002591 6.960201 -0.231727
v 2.624665 6.960201 0.231727
v -2.624665 6.960201 -0.231727
v -2.518303 0.952873 -0.500000
v -3.105516 0.952873 -0.500000
v 2.520809 0.952873 0.500000
v 3.108022 0.952873 0.500000
v -3.105516 0.952873 0.500000
v 3.108022 0.952873 -0.500000
v 2.520809 0.952873 -0.500000
v -2.518303 0.952873 0.500000
v -2.624464 0.691579 -0.238725
v -2.999356 0.691579 -0.238725
v 2.626969 0.691579 0.238725
v 3.001862 0.691579 0.238725
v -2.999356 0.691579 0.238725
v 3.001862 0.691579 -0.238725
v 2.626969 0.691579 -0.238725
v -2.624464 0.691579 0.238725
v -2.624464 0.417508 -0.238725
v -2.999356 0.417508 -0.238725
v 2.626969 0.417508 0.238725
v 3.001862 0.417508 0.238725
v -2.999356 0.417508 0.238725
v 3.001862 0.417508 -0.238725
v 2.626969 0.417508 -0.238725
v -2.624464 0.417508 0.238725
v -2.718187 0.115085 -0.119362
v -2.905633 0.115085 -0.119362
v 2.720692 0.115085 0.119362
v 2.908138 0.115085 0.119362
v -2.905633 0.115085 0.119362
v 2.908138 0.115085 -0.119362
v 2.720692 0.115085 -0.119362
v -2.718187 0.115085 0.119362
v 3.058095 0.554543 -0.310342
v 2.570735 0.554543 -0.310342
v 2.570735 0.554543 0.310342
v 3.058095 0.554543 0.310342
v -2.568230 0.554543 0.310342
v -2.568230 0.554543 -0.310342
v -3.055590 0.554543 -0.310342
v -3.055590 0.554543 0.310342
v -2.624665 7.290977 0.231727
v -3.002591 7.290977 0.231727
v 2.624665 7.290977 -0.231727
v 3.002591 7.290977 -0.231727
v 3.002591 7.290977 0.231727
v -3.002591 7.290977 -0.231727
v 2.624665 7.290977 0.231727
v -2.624665 7.290977 -0.231727
v -2.700250 7.595238 0.139036
v -2.927006 7.595238 0.139036
v 2.700250 7.595238 -0.139036
v 2.927006 7.595238 -0.139036
v 2.927006 7.595238 0.139036
v -2.927006 7.595238 -0.139036
v 2.700250 7.595238 0.139036
v -2.700250 7.595238 -0.139036
v -2.567976 7.125589 -0.301246
v -2.567976 7.125589 0.301246
v -3.059279 7.125589 -0.301246
v -3.059279 7.125589 0.301246
v 2.567976 7.125589 -0.301246
v 3.059279 7.125589 -0.301246
v 2.567976 7.125589 0.301246
v 3.059279 7.125589 0.301246
vn -0.0000 1.0000 -0.0000
vn -0.0000 -0.0000 1.0000
vn -0.7605 0.6493 -0.0000
vn -0.0000 -1.0000 -0.0000
vn 0.7605 0.6493 -0.0000
vn -0.0000 -0.0000 -1.0000
vn -0.0000 0.9997 -0.0238
vn -0.9999 -0.0000 -0.0136
vn 0.9999 -0.0000 0.0136
vn -0.9999 -0.0000 0.0136
vn 0.9999 -0.0000 -0.0136
vn -0.0000 -0.9997 0.0238
vn -0.0000 0.9997 0.0238
vn -0.0000 -0.9997 -0.0238
vn 0.7605 -0.6493 -0.0000
vn 0.9135 0.4069 -0.0000
vn -0.7605 -0.6493 -0.0000
vn -0.9135 0.4069 -0.0000
vn -0.9135 -0.4069 -0.0000
vn 0.9135 -0.4069 -0.0000
vn -1.0000 -0.0000 -0.0000
vn -0.0000 0.3875 -0.9219
vn 0.9460 0.3242 -0.0000
vn 1.0000 -0.0000 -0.0000
vn -0.0000 -0.4632 -0.8863
vn 0.9251 -0.3796 -0.0000
vn 0.9552 -0.2960 -0.0000
vn -0.0000 -0.3671 0.9302
vn -0.9251 -0.3796 -0.0000
vn -0.0000 -0.4632 0.8863
vn -0.0000 -0.3671 -0.9302
vn -0.9552 -0.2960 -0.0000
vn -0.0000 0.4632 0.8863
vn 0.9251 0.3796 -0.0000
vn -0.9251 0.3796 -0.0000
vn -0.0000 0.4632 -0.8863
vn -0.9705 0.2411 -0.0000
vn -0.0000 0.2914 -0.9566
vn -0.9460 0.3242 -0.0000
vn -0.0000 0.3875 0.9219
vn -0.0000 0.2914 0.9566
vn 0.9705 0.2411 -0.0000
vn -0.0000 -0.3875 0.9219
vn -0.9460 -0.3242 -0.0000
vn 0.9460 -0.3242 -0.0000
vn -0.0000 -0.3875 -0.9219
vt 0.791667 0.500000
vt 0.875000 0.500000
vt 0.875000 0.750000
vt 0.791667 0.750000
vt 0.532979 0.907979
vt 0.598938 0.907979
vt 0.598938 0.973937
vt 0.532979 0.973938
vt 0.541667 0.000000
vt 0.625000 0.000000
vt 0.625000 0.250000
vt 0.541667 0.250000
vt 0.291667 0.500000
vt 0.375000 0.500000
vt 0.375000 0.750000
vt 0.291667 0.750000
vt 0.541667 0.500000
vt 0.625000 0.500000
vt 0.625000 0.750000
vt 0.541667 0.750000
vt 0.532979 0.407979
vt 0.598938 0.407979
vt 0.598938 0.473938
vt 0.532979 0.473938
vt 0.393697 0.410434
vt 0.393697 0.481303
vt 0.375000 0.416667
vt 0.535434 0.481303
vt 0.606303 0.481303
vt 0.535434 0.981303
vt 0.606303 0.981303
vt 0.625000 1.000000
vt 0.541667 1.000000
vt 0.464566 0.768697
vt 0.393697 0.768697
vt 0.458333 0.750000
vt 0.464566 0.268697
vt 0.393697 0.268697
vt 0.375000 0.250000
vt 0.458333 0.250000
vt 0.606303 0.839566
vt 0.606303 0.768697
vt 0.625000 0.833333
vt 0.393697 0.910434
vt 0.393697 0.981303
vt 0.375000 1.000000
vt 0.375000 0.916667
vt 0.606303 0.339566
vt 0.606303 0.268697
vt 0.625000 0.333333
vt 0.401062 0.407979
vt 0.401062 0.473938
vt 0.467021 0.776062
vt 0.401062 0.776062
vt 0.467021 0.276062
vt 0.401062 0.276062
vt 0.598938 0.842021
vt 0.598938 0.776062
vt 0.401062 0.907979
vt 0.401062 0.973938
vt 0.598938 0.342021
vt 0.598938 0.276062
vt 0.532979 0.276062
vt 0.535434 0.268697
vt 0.500000 0.276062
vt 0.500000 0.268697
vt 0.532979 0.776062
vt 0.535434 0.768697
vt 0.500000 0.776062
vt 0.500000 0.768697
vt 0.467021 0.973938
vt 0.464566 0.981303
vt 0.500000 0.973938
vt 0.500000 0.981303
vt 0.467021 0.473938
vt 0.464566 0.481303
vt 0.500000 0.473938
vt 0.500000 0.481303
vt 0.500000 0.250000
vt 0.500000 0.750000
vt 0.458333 1.000000
vt 0.500000 1.000000
vt 0.458333 0.500000
vt 0.500000 0.500000
vt 0.467021 0.407979
vt 0.500000 0.407979
vt 0.375000 0.000000
vt 0.458333 0.000000
vt 0.500000 0.000000
vt 0.467021 0.907979
vt 0.500000 0.907979
vt 0.500000 0.342021
vt 0.467021 0.342021
vt 0.467021 0.385993
vt 0.500000 0.385993
vt 0.500000 0.842021
vt 0.467021 0.842021
vt 0.467021 0.885993
vt 0.500000 0.885993
vt 0.532979 0.842021
vt 0.532979 0.885993
vt 0.401062 0.842021
vt 0.401062 0.885993
vt 0.532979 0.342021
vt 0.532979 0.385993
vt 0.401062 0.342021
vt 0.401062 0.385993
vt 0.606303 0.410434
vt 0.598938 0.364007
vt 0.606303 0.363189
vt 0.393697 0.839566
vt 0.393697 0.886811
vt 0.606303 0.910434
vt 0.598938 0.864007
vt 0.606303 0.863188
vt 0.393697 0.339566
vt 0.393697 0.386811
vt 0.625000 0.416667
vt 0.625000 0.361111
vt 0.375000 0.833333
vt 0.375000 0.888889
vt 0.625000 0.916667
vt 0.625000 0.861111
vt 0.375000 0.333333
vt 0.375000 0.388889
vt 0.598938 0.385993
vt 0.125000 0.500000
vt 0.208333 0.500000
vt 0.208333 0.750000
vt 0.125000 0.750000
vt 0.213355 0.723460
vt 0.213355 0.526540
vt 0.598938 0.885993
vt 0.708333 0.500000
vt 0.708333 0.750000
vt 0.729140 0.536615
vt 0.729140 0.713385
vt 0.715304 0.536615
vt 0.736111 0.500000
vt 0.763889 0.500000
vt 0.763889 0.750000
vt 0.736111 0.750000
vt 0.532979 0.864007
vt 0.268911 0.526540
vt 0.286645 0.526540
vt 0.236111 0.500000
vt 0.263889 0.500000
vt 0.263889 0.750000
vt 0.236111 0.750000
vt 0.532979 0.364007
vt 0.393697 0.363189
vt 0.375000 0.361111
vt 0.606303 0.886811
vt 0.625000 0.888889
vt 0.393697 0.863188
vt 0.375000 0.861111
vt 0.606303 0.386811
vt 0.625000 0.388889
vt 0.401062 0.364007
vt 0.401062 0.864007
vt 0.467021 0.364007
vt 0.500000 0.364007
vt 0.467021 0.864007
vt 0.500000 0.864007
vt 0.770859 0.713385
vt 0.784696 0.713385
vt 0.715304 0.713385
vt 0.784696 0.536615
vt 0.770859 0.536615
vt 0.231089 0.526540
vt 0.268911 0.723460
vt 0.286645 0.723460
vt 0.231089 0.723460
s 0
usemtl Material
f 138/1/1 16/2/1 13/3/1 134/4/1
f 92/5/2 80/6/2 7/7/2 44/8/2
f 28/9/3 13/10/3 16/11/3 31/12/3
f 154/13/4 9/14/4 15/15/4 152/16/4
f 25/17/5 11/18/5 14/19/5 29/20/5
f 88/21/6 84/22/6 1/23/6 41/24/6
f 69/25/6 17/26/6 9/14/6 154/27/6
f 33/28/6 19/29/6 11/18/6 25/17/6
f 36/30/2 21/31/2 13/32/2 28/33/2
f 38/34/2 23/35/2 15/15/2 30/36/2
f 40/37/6 18/38/6 10/39/6 32/40/6
f 71/41/2 22/42/2 14/19/2 137/43/2
f 73/44/2 20/45/2 12/46/2 153/47/2
f 75/48/6 24/49/6 16/11/6 138/50/6
f 77/51/7 2/52/7 17/26/7 69/25/7
f 41/24/8 1/23/8 19/29/8 33/28/8
f 44/8/9 7/7/9 21/31/9 36/30/9
f 46/53/10 4/54/10 23/35/10 38/34/10
f 48/55/11 6/56/11 18/38/11 40/37/11
f 79/57/12 3/58/12 22/42/12 71/41/12
f 81/59/13 8/60/13 20/45/13 73/44/13
f 83/61/14 5/62/14 24/49/14 75/48/14
f 5/62/11 47/63/11 39/64/11 24/49/11
f 60/65/11 48/55/11 40/37/11 56/66/11
f 3/58/10 45/67/10 37/68/10 22/42/10
f 59/69/10 46/53/10 38/34/10 55/70/10
f 8/60/9 43/71/9 35/72/9 20/45/9
f 58/73/9 44/8/9 36/30/9 54/74/9
f 2/52/8 42/75/8 34/76/8 17/26/8
f 57/77/8 41/24/8 33/28/8 53/78/8
f 24/49/6 39/64/6 31/12/6 16/11/6
f 56/66/6 40/37/6 32/40/6 52/79/6
f 22/42/2 37/68/2 29/20/2 14/19/2
f 55/70/2 38/34/2 30/36/2 51/80/2
f 20/45/2 35/72/2 27/81/2 12/46/2
f 54/74/2 36/30/2 28/33/2 50/82/2
f 17/26/6 34/76/6 26/83/6 9/14/6
f 53/78/6 33/28/6 25/17/6 49/84/6
f 77/51/6 86/85/6 42/75/6 2/52/6
f 96/86/6 88/21/6 41/24/6 57/77/6
f 9/14/15 26/83/15 30/36/15 15/15/15
f 49/84/16 25/17/16 29/20/16 51/80/16
f 12/87/17 27/88/17 32/40/17 10/39/17
f 50/89/18 28/9/18 31/12/18 52/79/18
f 81/59/2 90/90/2 43/71/2 8/60/2
f 94/91/2 92/5/2 44/8/2 58/73/2
f 90/90/2 94/91/2 58/73/2 43/71/2
f 27/88/19 50/89/19 52/79/19 32/40/19
f 26/83/20 49/84/20 51/80/20 30/36/20
f 86/85/6 96/86/6 57/77/6 42/75/6
f 34/76/6 53/78/6 49/84/6 26/83/6
f 35/72/2 54/74/2 50/82/2 27/81/2
f 37/68/2 55/70/2 51/80/2 29/20/2
f 39/64/6 56/66/6 52/79/6 31/12/6
f 42/75/8 57/77/8 53/78/8 34/76/8
f 43/71/9 58/73/9 54/74/9 35/72/9
f 45/67/10 59/69/10 55/70/10 37/68/10
f 47/63/11 60/65/11 56/66/11 39/64/11
f 48/55/6 60/65/6 95/92/6 85/93/6
f 122/94/6 132/95/6 96/86/6 86/85/6
f 46/53/2 59/69/2 93/96/2 89/97/2
f 126/98/2 130/99/2 94/91/2 90/90/2
f 59/69/2 45/67/2 91/100/2 93/96/2
f 130/99/2 128/101/2 92/5/2 94/91/2
f 4/54/2 46/53/2 89/97/2 82/102/2
f 117/103/2 126/98/2 90/90/2 81/59/2
f 60/65/6 47/63/6 87/104/6 95/92/6
f 132/95/6 124/105/6 88/21/6 96/86/6
f 6/56/6 48/55/6 85/93/6 78/106/6
f 113/107/6 122/94/6 86/85/6 77/51/6
f 1/23/14 84/22/14 76/108/14 19/29/14
f 119/109/14 83/61/14 75/48/14 111/110/14
f 4/54/13 82/102/13 74/111/13 23/35/13
f 117/103/13 81/59/13 73/44/13 109/112/13
f 7/7/12 80/6/12 72/113/12 21/31/12
f 115/114/12 79/57/12 71/41/12 107/115/12
f 6/56/7 78/106/7 70/116/7 18/38/7
f 113/107/7 77/51/7 69/25/7 105/117/7
f 19/29/6 76/108/6 136/118/6 11/18/6
f 111/110/6 75/48/6 138/50/6 140/119/6
f 23/35/2 74/111/2 152/120/2 15/15/2
f 109/112/2 73/44/2 153/47/2 156/121/2
f 21/31/2 72/113/2 134/122/2 13/32/2
f 107/115/2 71/41/2 137/43/2 139/123/2
f 18/38/6 70/116/6 150/124/6 10/39/6
f 105/117/6 69/25/6 154/27/6 155/125/6
f 47/63/6 5/62/6 83/61/6 87/104/6
f 124/105/6 120/126/6 84/22/6 88/21/6
f 10/127/4 150/128/4 153/129/4 12/130/4
f 65/131/21 62/132/21 158/132/21 161/131/21
f 45/67/2 3/58/2 79/57/2 91/100/2
f 128/101/2 116/133/2 80/6/2 92/5/2
f 11/18/1 136/134/1 137/135/1 14/19/1
f 104/136/21 99/137/21 147/137/21 143/136/21
f 68/138/6 104/136/6 143/136/6 144/138/6
f 135/139/1 140/140/1 133/141/1 139/142/1
f 91/100/2 79/57/2 115/114/2 127/143/2
f 127/143/2 115/114/2 116/133/2 128/101/2
f 97/144/6 61/145/6 162/145/6 163/144/6
f 149/146/4 155/147/4 151/148/4 156/149/4
f 87/104/6 83/61/6 119/109/6 123/150/6
f 123/150/6 119/109/6 120/126/6 124/105/6
f 70/116/6 106/151/6 149/152/6 150/124/6
f 106/151/6 105/117/6 155/125/6 149/152/6
f 72/113/2 108/153/2 133/154/2 134/122/2
f 108/153/2 107/115/2 139/123/2 133/154/2
f 74/111/2 110/155/2 151/156/2 152/120/2
f 110/155/2 109/112/2 156/121/2 151/156/2
f 76/108/6 112/157/6 135/158/6 136/118/6
f 112/157/6 111/110/6 140/119/6 135/158/6
f 78/106/7 114/159/7 106/151/7 70/116/7
f 114/159/7 113/107/7 105/117/7 106/151/7
f 80/6/12 116/133/12 108/153/12 72/113/12
f 116/133/12 115/114/12 107/115/12 108/153/12
f 82/102/13 118/160/13 110/155/13 74/111/13
f 118/160/13 117/103/13 109/112/13 110/155/13
f 84/22/14 120/126/14 112/157/14 76/108/14
f 120/126/14 119/109/14 111/110/14 112/157/14
f 78/106/6 85/93/6 121/161/6 114/159/6
f 114/159/6 121/161/6 122/94/6 113/107/6
f 95/92/6 87/104/6 123/150/6 131/162/6
f 131/162/6 123/150/6 124/105/6 132/95/6
f 82/102/2 89/97/2 125/163/2 118/160/2
f 118/160/2 125/163/2 126/98/2 117/103/2
f 93/96/2 91/100/2 127/143/2 129/164/2
f 129/164/2 127/143/2 128/101/2 130/99/2
f 89/97/2 93/96/2 129/164/2 125/163/2
f 125/163/2 129/164/2 130/99/2 126/98/2
f 85/93/6 95/92/6 131/162/6 121/161/6
f 121/161/6 131/162/6 132/95/6 122/94/6
f 100/165/1 64/166/1 134/4/1 133/141/1
f 104/136/1 68/138/1 136/134/1 135/139/1
f 68/138/1 63/167/1 137/135/1 136/134/1
f 64/166/1 67/168/1 138/1/1 134/4/1
f 63/167/1 99/137/1 139/142/1 137/135/1
f 67/168/1 103/169/1 140/140/1 138/1/1
f 99/137/1 104/136/1 135/139/1 139/142/1
f 103/169/1 100/165/1 133/141/1 140/140/1
f 205/169/22 207/168/22 194/168/22 196/169/22
f 206/165/23 205/169/23 196/169/23 189/165/23
f 99/137/2 63/167/2 145/167/2 147/137/2
f 63/167/24 68/138/24 144/138/24 145/167/24
f 64/166/2 100/165/2 141/165/2 142/166/2
f 100/165/24 103/169/24 148/169/24 141/165/24
f 103/169/6 67/168/6 146/168/6 148/169/6
f 67/168/21 64/166/21 142/166/21 146/168/21
f 98/170/4 62/132/4 150/128/4 149/146/4
f 102/171/4 66/172/4 152/16/4 151/148/4
f 62/132/4 65/131/4 153/129/4 150/128/4
f 66/172/4 61/145/4 154/13/4 152/16/4
f 61/145/4 97/144/4 155/147/4 154/13/4
f 65/131/4 101/173/4 156/149/4 153/129/4
f 101/173/4 98/170/4 149/146/4 156/149/4
f 97/144/4 102/171/4 151/148/4 155/147/4
f 182/144/25 181/145/25 170/145/25 171/144/25
f 186/170/26 185/173/26 172/173/26 165/170/26
f 62/132/6 98/170/6 157/170/6 158/132/6
f 102/171/21 97/144/21 163/144/21 159/171/21
f 101/173/2 65/131/2 161/131/2 164/173/2
f 61/145/24 66/172/24 160/172/24 162/145/24
f 66/172/2 102/171/2 159/171/2 160/172/2
f 98/170/24 101/173/24 164/173/24 157/170/24
f 170/145/27 168/172/27 176/172/27 178/145/27
f 172/173/28 169/131/28 177/131/28 180/173/28
f 188/131/29 187/132/29 166/132/29 169/131/29
f 187/132/25 186/170/25 165/170/25 166/132/25
f 183/171/29 182/144/29 171/144/29 167/171/29
f 185/173/30 188/131/30 169/131/30 172/173/30
f 181/145/26 184/172/26 168/172/26 170/145/26
f 184/172/30 183/171/30 167/171/30 168/172/30
f 179/144/4 178/145/4 176/172/4 175/171/4
f 174/132/4 173/170/4 180/173/4 177/131/4
f 168/172/28 167/171/28 175/171/28 176/172/28
f 165/170/27 172/173/27 180/173/27 173/170/27
f 171/144/31 170/145/31 178/145/31 179/144/31
f 169/131/32 166/132/32 174/132/32 177/131/32
f 166/132/31 165/170/31 173/170/31 174/132/31
f 167/171/32 171/144/32 179/144/32 175/171/32
f 160/172/33 159/171/33 183/171/33 184/172/33
f 162/145/34 160/172/34 184/172/34 181/145/34
f 159/171/35 163/144/35 182/144/35 183/171/35
f 163/144/36 162/145/36 181/145/36 182/144/36
f 164/173/33 161/131/33 188/131/33 185/173/33
f 158/132/36 157/170/36 186/170/36 187/132/36
f 161/131/35 158/132/35 187/132/35 188/131/35
f 157/170/34 164/173/34 185/173/34 186/170/34
f 191/136/37 195/137/37 203/137/37 199/136/37
f 192/138/38 191/136/38 199/136/38 200/138/38
f 207/168/39 208/166/39 190/166/39 194/168/39
f 210/138/22 209/136/22 191/136/22 192/138/22
f 209/136/39 211/137/39 195/137/39 191/136/39
f 211/137/40 212/167/40 193/167/40 195/137/40
f 212/167/23 210/138/23 192/138/23 193/167/23
f 208/166/40 206/165/40 189/165/40 190/166/40
f 204/169/1 202/168/1 198/166/1 197/165/1
f 200/138/1 199/136/1 203/137/1 201/167/1
f 195/137/41 193/167/41 201/167/41 203/137/41
f 193/167/42 192/138/42 200/138/42 201/167/42
f 190/166/41 189/165/41 197/165/41 198/166/41
f 189/165/42 196/169/42 204/169/42 197/165/42
f 196/169/38 194/168/38 202/168/38 204/169/38
f 194/168/37 190/166/37 198/166/37 202/168/37
f 142/166/43 141/165/43 206/165/43 208/166/43
f 146/168/44 142/166/44 208/166/44 207/168/44
f 141/165/45 148/169/45 205/169/45 206/165/45
f 148/169/46 146/168/46 207/168/46 205/169/46
f 145/167/45 144/138/45 210/138/45 212/167/45
f 147/137/43 145/167/43 212/167/43 211/137/43
f 143/136/44 147/137/44 211/137/44 209/136/44
f 144/138/46 143/136/46 209/136/46 210/138/46
o Cube.001
v -7.985693 -2.120082 1.000000
v -7.985693 8.500000 1.000000
v -7.985693 -2.120082 -1.000000
v -7.985693 8.500000 -1.000000
v -6.985693 -2.120082 1.000000
v -6.985693 8.500000 1.000000
v -6.985693 -2.120082 -1.000000
v -6.985693 8.500000 -1.000000
v -7.985693 -2.953846 0.000000
v -7.985693 9.333763 0.000000
v -6.985693 -2.953846 0.000000
v -6.985693 9.333763 0.000000
v -6.985693 6.674845 0.000000
v -6.985693 6.674845 0.331034
v -6.985693 6.674845 -0.331034
v -6.985693 6.304638 0.000000
v -6.985693 6.304638 0.331034
v -6.985693 6.304638 -0.331034
v -6.985693 6.891397 0.000000
v -6.985693 6.891397 1.000000
v -6.985693 6.891397 -1.000000
v -6.985693 6.088086 1.000000
v -6.985693 6.088086 -1.000000
v -6.985693 6.088086 0.000000
v 5.995291 6.674845 0.000000
v 5.995291 6.304638 0.000000
v 5.995291 6.674845 0.331034
v 5.995291 6.674845 -0.331034
v 5.995291 6.304638 0.331034
v 5.995291 6.304638 -0.331034
v 6.449233 6.674845 0.331034
v 6.449233 6.674845 -0.331034
v 6.449233 6.304638 0.331034
v 6.449233 6.304638 -0.331034
v 6.876587 6.582294 0.165517
v 6.876587 6.582294 -0.165517
v 6.876587 6.397190 0.165517
v 6.876587 6.397190 -0.165517
v 6.222262 6.767397 -0.496551
v 6.222262 6.212086 0.496551
v 6.222262 6.767397 0.496551
v 6.222262 6.212086 -0.496551
vn -1.0000 -0.0000 -0.0000
vn -0.0000 -0.0000 -1.0000
vn 1.0000 -0.0000 -0.0000
vn -0.0000 -0.0000 1.0000
vn -0.0000 -0.7681 0.6404
vn -0.0000 0.7681 0.6404
vn -0.0000 0.7681 -0.6404
vn -0.0000 -0.7681 -0.6404
vn -0.0000 1.0000 -0.0000
vn -0.0000 -1.0000 -0.0000
vn 0.3776 -0.9260 -0.0000
vn 0.2117 -0.9773 -0.0000
vn 0.2117 0.9773 -0.0000
vn 0.5892 -0.0000 0.8080
vn 0.5892 -0.0000 -0.8080
vn -0.3776 0.9260 -0.0000
vn 0.3612 -0.0000 0.9325
vn 0.3612 -0.0000 -0.9325
vn -0.5892 -0.0000 -0.8080
vn -0.3776 -0.9260 -0.0000
vn -0.5892 -0.0000 0.8080
vn 0.3776 0.9260 -0.0000
vt 0.375000 0.125000
vt 0.625000 0.125000
vt 0.625000 0.250000
vt 0.375000 0.250000
vt 0.625000 0.500000
vt 0.601344 0.500000
vt 0.589531 0.500000
vt 0.375000 0.500000
vt 0.375000 0.625000
vt 0.581533 0.625000
vt 0.589531 0.750000
vt 0.375000 0.750000
vt 0.601344 0.750000
vt 0.625000 0.750000
vt 0.625000 1.000000
vt 0.375000 1.000000
vt 0.125000 0.625000
vt 0.125000 0.750000
vt 0.625000 0.625000
vt 0.875000 0.625000
vt 0.875000 0.750000
vt 0.875000 0.500000
vt 0.125000 0.500000
vt 0.375000 0.000000
vt 0.625000 0.000000
vt 0.592291 0.625000
vt 0.596272 0.527069
vt 0.589391 0.625000
vt 0.590911 0.527069
vt 0.596272 0.722931
vt 0.590911 0.722931
vt 0.584433 0.625000
s 0
f 221/174/47 222/175/47 216/176/47 215/177/47
f 215/177/48 216/176/48 220/178/48 233/179/48 235/180/48 219/181/48
f 223/182/49 236/183/49 234/184/49 217/185/49
f 217/185/50 234/184/50 232/186/50 218/187/50 214/188/50 213/189/50
f 221/190/51 223/182/51 217/185/51 213/191/51
f 224/192/52 222/193/52 214/194/52 218/187/52
f 220/178/53 216/195/53 222/193/53 224/192/53
f 215/196/54 219/181/54 223/182/54 221/190/54
f 219/181/49 235/180/49 236/183/49 223/182/49
f 213/197/47 214/198/47 222/175/47 221/174/47
f 232/186/49 231/199/49 224/192/49 218/187/49
f 231/199/49 233/179/49 220/178/49 224/192/49
f 227/200/55 225/201/55 237/201/55 240/200/55
f 230/202/48 227/200/48 240/200/48 242/202/48
f 226/203/49 225/201/49 231/199/49 232/186/49
f 225/201/49 227/200/49 233/179/49 231/199/49
f 229/204/49 226/203/49 232/186/49 234/184/49
f 227/200/49 230/202/49 235/180/49 233/179/49
f 228/205/49 229/204/49 234/184/49 236/183/49
f 230/202/49 228/205/49 236/183/49 235/180/49
f 229/204/56 228/205/56 238/205/56 241/204/56
f 226/203/50 229/204/50 241/204/50 239/203/50
f 225/201/55 226/203/55 239/203/55 237/201/55
f 228/205/56 230/202/56 242/202/56 238/205/56
f 254/202/57 246/202/57 245/204/57 252/204/57
f 245/204/58 246/202/58 250/202/58 249/204/58
f 243/203/59 247/203/59 248/200/59 244/200/59
f 253/203/60 252/204/60 245/204/60 243/203/60
f 254/202/61 251/200/61 244/200/61 246/202/61
f 249/204/49 250/202/49 248/200/49 247/203/49
f 240/200/62 237/201/62 239/203/62 253/203/62 251/200/62
f 243/203/63 245/204/63 249/204/63 247/203/63
f 246/202/64 244/200/64 248/200/64 250/202/64
f 242/202/65 240/200/65 251/200/65 254/202/65
f 241/204/66 238/205/66 242/202/66 254/202/66 252/204/66
f 239/203/67 241/204/67 252/204/67 253/203/67
f 253/203/68 243/203/68 244/200/68 251/200/68
