# Blender 4.1.1
# www.blender.org
mtllib Big-shelf.mtl
o Cube
v 4.214938 4.008689 1.000001
v 4.214938 0.008689 1.000000
v 4.214938 4.008689 -1.408269
v 4.214938 0.008689 -1.408270
v 12.640889 4.008689 1.000000
v 12.640889 0.008689 1.000000
v 12.640889 4.008689 -1.408270
v 12.640890 0.008689 -1.408270
v 4.367785 3.895552 1.000001
v 4.367785 0.121826 1.000000
v 4.323111 3.916313 -0.953811
v 4.323111 0.101065 -0.953812
v 12.488042 3.895552 1.000000
v 12.488042 0.121826 1.000000
v 12.532716 3.916313 -0.953812
v 12.532716 0.101065 -0.953812
v 4.214938 8.008689 1.000001
v 4.214938 4.008689 1.000001
v 4.214938 8.008689 -1.408269
v 4.214938 4.008689 -1.408269
v 12.640889 8.008689 1.000000
v 12.640889 4.008689 1.000000
v 12.640889 8.008689 -1.408270
v 12.640890 4.008689 -1.408270
v 4.367785 7.895552 1.000001
v 4.367785 4.121826 1.000001
v 4.323111 7.916313 -0.953811
v 4.323111 4.101065 -0.953811
v 12.488042 7.895552 1.000000
v 12.488042 4.121826 1.000000
v 12.532716 7.916313 -0.953812
v 12.532716 4.101065 -0.953812
v 4.214938 12.008689 1.000001
v 4.214938 8.008689 1.000001
v 4.214938 12.008689 -1.408269
v 4.214938 8.008689 -1.408269
v 12.640889 12.008689 1.000001
v 12.640889 8.008689 1.000000
v 12.640890 12.008689 -1.408269
v 12.640890 8.008689 -1.408270
v 4.367785 11.895552 1.000001
v 4.367785 8.121826 1.000001
v 4.323111 11.916313 -0.953811
v 4.323111 8.101065 -0.953811
v 12.488042 11.895552 1.000001
v 12.488042 8.121826 1.000000
v 12.532716 11.916313 -0.953811
v 12.532716 8.101065 -0.953812
v -4.211014 4.008689 1.000002
v -4.211014 0.008689 1.000001
v -4.211014 4.008689 -1.408268
v -4.211014 0.008689 -1.408269
v 4.214938 4.008689 1.000001
v 4.214938 0.008689 1.000000
v 4.214938 4.008689 -1.408269
v 4.214938 0.008689 -1.408270
v -4.058167 3.895552 1.000001
v -4.058167 0.121826 1.000001
v -4.102841 3.916313 -0.953811
v -4.102841 0.101065 -0.953811
v 4.062090 3.895552 1.000001
v 4.062090 0.121826 1.000000
v 4.106765 3.916313 -0.953811
v 4.106765 0.101065 -0.953812
v -4.211014 8.008689 1.000002
v -4.211014 4.008689 1.000002
v -4.211014 8.008689 -1.408268
v -4.211014 4.008689 -1.408268
v 4.214938 8.008689 1.000001
v 4.214938 4.008689 1.000001
v 4.214938 8.008689 -1.408269
v 4.214938 4.008689 -1.408269
v -4.058167 7.895552 1.000002
v -4.058167 4.121826 1.000002
v -4.102841 7.916313 -0.953810
v -4.102841 4.101065 -0.953811
v 4.062090 7.895552 1.000001
v 4.062090 4.121826 1.000001
v 4.106765 7.916313 -0.953811
v 4.106765 4.101065 -0.953811
v -4.211014 12.008689 1.000002
v -4.211014 8.008689 1.000002
v -4.211014 12.008689 -1.408268
v -4.211014 8.008689 -1.408268
v 4.214938 12.008689 1.000001
v 4.214938 8.008689 1.000001
v 4.214938 12.008689 -1.408269
v 4.214938 8.008689 -1.408269
v -4.058167 11.895552 1.000002
v -4.058167 8.121826 1.000002
v -4.102841 11.916313 -0.953810
v -4.102841 8.101065 -0.953810
v 4.062090 11.895552 1.000001
v 4.062090 8.121826 1.000001
v 4.106765 11.916313 -0.953811
v 4.106765 8.101065 -0.953811
v -12.636967 4.008689 1.000002
v -12.636967 0.008689 1.000002
v -12.636967 4.008689 -1.408268
v -12.636967 0.008689 -1.408268
v -4.211014 4.008689 1.000002
v -4.211014 0.008689 1.000001
v -4.211014 4.008689 -1.408268
v -4.211014 0.008689 -1.408269
v -12.484118 3.895552 1.000002
v -12.484118 0.121826 1.000002
v -12.528792 3.916313 -0.953810
v -12.528792 0.101065 -0.953810
v -4.363861 3.895552 1.000002
v -4.363861 0.121826 1.000001
v -4.319187 3.916313 -0.953811
v -4.319187 0.101065 -0.953811
v -12.636967 8.008689 1.000003
v -12.636967 4.008689 1.000002
v -12.636967 8.008689 -1.408267
v -12.636967 4.008689 -1.408268
v -4.211014 8.008689 1.000002
v -4.211014 4.008689 1.000002
v -4.211014 8.008689 -1.408268
v -4.211014 4.008689 -1.408268
v -12.484118 7.895552 1.000003
v -12.484118 4.121826 1.000002
v -12.528792 7.916313 -0.953810
v -12.528792 4.101065 -0.953810
v -4.363861 7.895552 1.000002
v -4.363861 4.121826 1.000002
v -4.319187 7.916313 -0.953810
v -4.319187 4.101065 -0.953811
v -12.636967 12.008689 1.000003
v -12.636967 8.008689 1.000003
v -12.636967 12.008689 -1.408267
v -12.636967 8.008689 -1.408267
v -4.211014 12.008689 1.000002
v -4.211014 8.008689 1.000002
v -4.211014 12.008689 -1.408268
v -4.211014 8.008689 -1.408268
v -12.484118 11.895552 1.000003
v -12.484118 8.121826 1.000003
v -12.528792 11.916313 -0.953809
v -12.528792 8.101065 -0.953809
v -4.363861 11.895552 1.000002
v -4.363861 8.121826 1.000002
v -4.319187 11.916313 -0.953810
v -4.319187 8.101065 -0.953810
v 4.214938 4.008689 3.983215
v 4.214938 0.008689 3.983214
v 12.640889 4.008689 3.983214
v 12.640889 0.008689 3.983213
v 4.367785 3.895552 3.983215
v 4.367785 0.121826 3.983214
v 12.488042 3.895552 3.983214
v 12.488042 0.121826 3.983213
v -4.211014 4.008689 3.983215
v -4.211014 0.008689 3.983215
v 4.214938 4.008689 3.983215
v 4.214938 0.008689 3.983214
v -4.058167 3.895552 3.983215
v -4.058167 0.121826 3.983215
v 4.062091 3.895552 3.983215
v 4.062091 0.121826 3.983214
v -12.636966 4.008689 3.983216
v -12.636966 0.008689 3.983216
v -4.211014 4.008689 3.983215
v -4.211014 0.008689 3.983215
v -12.484118 3.895552 3.983216
v -12.484118 0.121826 3.983216
v -4.363861 3.895552 3.983215
v -4.363861 0.121826 3.983215
v 12.640889 13.349121 1.000001
v 12.640890 13.349121 -1.408269
v 4.214938 13.349121 1.000001
v 4.214938 13.349121 -1.408269
v 4.214938 13.349121 1.000001
v 4.214938 13.349121 -1.408269
v -4.211014 13.349121 1.000002
v -4.211014 13.349121 -1.408268
v -4.211014 13.349121 1.000002
v -4.211014 13.349121 -1.408268
v -12.636967 13.349121 1.000003
v -12.636967 13.349121 -1.408267
v 4.214938 12.008689 1.374249
v 12.640889 12.008689 1.374248
v -4.211014 12.008689 1.374250
v 4.214938 12.008689 1.374249
v -12.636967 12.008689 1.374250
v -4.211014 12.008689 1.374250
v 4.214938 13.349121 1.374249
v 12.640889 13.349121 1.374248
v -4.211014 13.349121 1.374250
v 4.214938 13.349121 1.374249
v -12.636967 13.349121 1.374251
v -4.211014 13.349121 1.374250
v 4.110380 12.189809 1.703133
v 12.327218 12.189809 1.703133
v -4.106457 12.189809 1.703134
v 4.110380 12.189809 1.703133
v -12.323295 12.189809 1.703135
v -4.106457 12.189809 1.703134
v 4.110380 13.168001 1.703133
v 12.327218 13.168001 1.703133
v -4.106457 13.168001 1.703134
v 4.110380 13.168001 1.703133
v -12.323295 13.168001 1.703135
v -4.106457 13.168001 1.703134
v 4.535376 3.717768 4.222758
v 4.535376 0.299609 4.222757
v 12.320451 3.717768 4.222757
v 12.320451 0.299609 4.222757
v -3.890576 3.717768 4.222758
v -3.890576 0.299609 4.222758
v 3.894500 3.717768 4.222758
v 3.894500 0.299609 4.222757
v -12.316527 3.717768 4.222759
v -12.316527 0.299609 4.222759
v -4.531452 3.717768 4.222758
v -4.531452 0.299609 4.222758
v 4.367785 3.895552 4.124313
v 4.367785 0.121826 4.124312
v 12.488042 3.895552 4.124312
v 12.488042 0.121826 4.124312
v -4.058167 3.895552 4.124313
v -4.058167 0.121826 4.124313
v 4.062091 3.895552 4.124313
v 4.062091 0.121826 4.124312
v -12.484118 3.895552 4.124314
v -12.484118 0.121826 4.124314
v -4.363861 3.895552 4.124313
v -4.363861 0.121826 4.124313
vn -0.0000 1.0000 -0.0000
vn -0.0000 -0.0000 -1.0000
vn 1.0000 -0.0000 -0.0000
vn -0.0000 -1.0000 -0.0000
vn -1.0000 -0.0000 -0.0000
vn -0.0000 -0.9999 -0.0106
vn -0.0000 -0.0000 1.0000
vn -0.9997 -0.0000 -0.0229
vn -0.0000 0.9999 -0.0106
vn 0.9997 -0.0000 -0.0229
vn -0.0000 -0.8760 0.4824
vn 0.7236 -0.0000 0.6902
vn -0.0000 0.8760 0.4824
vn 0.9530 -0.0000 -0.3030
vn -0.9530 -0.0000 -0.3030
vn 0.9530 -0.0000 0.3030
vn -0.9530 -0.0000 0.3030
vn -0.7236 -0.0000 0.6902
vn -0.5065 -0.0000 0.8622
vn -0.0000 0.4844 0.8748
vn 0.5065 -0.0000 0.8622
vn -0.0000 -0.4844 0.8748
vt 0.625000 0.500000
vt 0.875000 0.500000
vt 0.875000 0.750000
vt 0.625000 0.750000
vt 0.375000 0.750000
vt 0.625000 1.000000
vt 0.375000 1.000000
vt 0.375000 0.000000
vt 0.625000 0.000000
vt 0.625000 0.250000
vt 0.375000 0.250000
vt 0.125000 0.500000
vt 0.375000 0.500000
vt 0.125000 0.750000
vt 0.837055 0.500000
vt 0.615834 0.500000
vt 0.384166 0.500000
vt 0.162944 0.500000
vt 0.384166 0.500000
vt 0.837056 0.500000
s 0
usemtl Material.001
f 1/1/1 5/2/1 7/3/1 3/4/1
f 4/5/2 3/4/2 7/6/2 8/7/2
f 8/8/3 7/9/3 5/10/3 6/11/3
f 6/12/4 2/13/4 4/5/4 8/14/4
f 2/13/5 1/1/5 3/4/5 4/5/5
f 9/1/6 11/4/6 15/3/6 13/2/6
f 12/5/7 16/7/7 15/6/7 11/4/7
f 16/8/8 14/11/8 13/10/8 15/9/8
f 14/12/9 16/14/9 12/5/9 10/13/9
f 10/13/10 12/5/10 11/4/10 9/1/10
f 49/1/5 50/13/5 154/13/5 153/1/5
f 17/1/1 21/2/1 23/3/1 19/4/1
f 20/5/2 19/4/2 23/6/2 24/7/2
f 24/8/3 23/9/3 21/10/3 22/11/3
f 22/12/4 18/13/4 20/5/4 24/14/4
f 18/13/5 17/1/5 19/4/5 20/5/5
f 25/1/6 27/4/6 31/3/6 29/2/6
f 28/5/7 32/7/7 31/6/7 27/4/7
f 32/8/8 30/11/8 29/10/8 31/9/8
f 30/12/9 32/14/9 28/5/9 26/13/9
f 26/13/10 28/5/10 27/4/10 25/1/10
f 18/13/7 22/12/7 30/12/7 26/13/7
f 17/1/7 18/13/7 26/13/7 25/1/7
f 22/11/7 21/10/7 29/10/7 30/11/7
f 21/2/7 17/1/7 25/1/7 29/2/7
f 81/1/4 85/2/4 184/2/4 183/1/4
f 36/5/2 35/4/2 39/6/2 40/7/2
f 40/8/3 39/9/3 37/10/3 38/11/3
f 38/12/4 34/13/4 36/5/4 40/14/4
f 34/13/5 33/1/5 35/4/5 36/5/5
f 41/1/6 43/4/6 47/3/6 45/2/6
f 44/5/7 48/7/7 47/6/7 43/4/7
f 48/8/8 46/11/8 45/10/8 47/9/8
f 46/12/9 48/14/9 44/5/9 42/13/9
f 42/13/10 44/5/10 43/4/10 41/1/10
f 34/13/7 38/12/7 46/12/7 42/13/7
f 33/1/7 34/13/7 42/13/7 41/1/7
f 38/11/7 37/10/7 45/10/7 46/11/7
f 37/2/7 33/1/7 41/1/7 45/2/7
f 49/1/1 53/2/1 55/3/1 51/4/1
f 52/5/2 51/4/2 55/6/2 56/7/2
f 56/8/3 55/9/3 53/10/3 54/11/3
f 54/12/4 50/13/4 52/5/4 56/14/4
f 50/13/5 49/1/5 51/4/5 52/5/5
f 57/1/6 59/4/6 63/3/6 61/2/6
f 60/5/7 64/7/7 63/6/7 59/4/7
f 64/8/8 62/11/8 61/10/8 63/9/8
f 62/12/9 64/14/9 60/5/9 58/13/9
f 58/13/10 60/5/10 59/4/10 57/1/10
f 53/2/1 49/1/1 153/1/1 155/2/1
f 102/11/3 101/10/3 163/10/3 164/11/3
f 98/13/4 102/12/4 164/12/4 162/13/4
f 97/1/5 98/13/5 162/13/5 161/1/5
f 65/1/1 69/2/1 71/3/1 67/4/1
f 68/5/2 67/4/2 71/6/2 72/7/2
f 72/8/3 71/9/3 69/10/3 70/11/3
f 70/12/4 66/13/4 68/5/4 72/14/4
f 66/13/5 65/1/5 67/4/5 68/5/5
f 73/1/6 75/4/6 79/3/6 77/2/6
f 76/5/7 80/7/7 79/6/7 75/4/7
f 80/8/8 78/11/8 77/10/8 79/9/8
f 78/12/9 80/14/9 76/5/9 74/13/9
f 74/13/10 76/5/10 75/4/10 73/1/10
f 66/13/7 70/12/7 78/12/7 74/13/7
f 65/1/7 66/13/7 74/13/7 73/1/7
f 70/11/7 69/10/7 77/10/7 78/11/7
f 69/2/7 65/1/7 73/1/7 77/2/7
f 133/10/3 135/9/3 178/9/3 177/10/3
f 84/5/2 83/4/2 87/6/2 88/7/2
f 88/8/3 87/9/3 85/10/3 86/11/3
f 86/12/4 82/13/4 84/5/4 88/14/4
f 82/13/5 81/1/5 83/4/5 84/5/5
f 89/1/6 91/4/6 95/3/6 93/2/6
f 92/5/7 96/7/7 95/6/7 91/4/7
f 96/8/8 94/11/8 93/10/8 95/9/8
f 94/12/9 96/14/9 92/5/9 90/13/9
f 90/13/10 92/5/10 91/4/10 89/1/10
f 82/13/7 86/12/7 94/12/7 90/13/7
f 81/1/7 82/13/7 90/13/7 89/1/7
f 86/11/7 85/10/7 93/10/7 94/11/7
f 85/2/7 81/1/7 89/1/7 93/2/7
f 97/1/1 101/2/1 103/3/1 99/4/1
f 100/5/2 99/4/2 103/6/2 104/7/2
f 104/8/3 103/9/3 101/10/3 102/11/3
f 102/12/4 98/13/4 100/5/4 104/14/4
f 98/13/5 97/1/5 99/4/5 100/5/5
f 105/1/6 107/4/6 111/3/6 109/2/6
f 108/5/7 112/7/7 111/6/7 107/4/7
f 112/8/8 110/11/8 109/10/8 111/9/8
f 110/12/9 112/14/9 108/5/9 106/13/9
f 106/13/10 108/5/10 107/4/10 105/1/10
f 101/2/1 97/1/1 161/1/1 163/2/1
f 6/11/3 5/10/3 147/10/3 148/11/3
f 2/13/4 6/12/4 148/12/4 146/13/4
f 1/1/5 2/13/5 146/13/5 145/1/5
f 113/1/1 117/2/1 119/3/1 115/4/1
f 116/5/2 115/4/2 119/6/2 120/7/2
f 120/8/3 119/9/3 117/10/3 118/11/3
f 118/12/4 114/13/4 116/5/4 120/14/4
f 114/13/5 113/1/5 115/4/5 116/5/5
f 121/1/6 123/4/6 127/3/6 125/2/6
f 124/5/7 128/7/7 127/6/7 123/4/7
f 128/8/8 126/11/8 125/10/8 127/9/8
f 126/12/9 128/14/9 124/5/9 122/13/9
f 122/13/10 124/5/10 123/4/10 121/1/10
f 114/13/7 118/12/7 126/12/7 122/13/7
f 113/1/7 114/13/7 122/13/7 121/1/7
f 118/11/7 117/10/7 125/10/7 126/11/7
f 117/2/7 113/1/7 121/1/7 125/2/7
f 131/4/5 129/1/5 179/1/5 180/4/5
f 132/5/2 131/4/2 135/6/2 136/7/2
f 136/8/3 135/9/3 133/10/3 134/11/3
f 134/12/4 130/13/4 132/5/4 136/14/4
f 130/13/5 129/1/5 131/4/5 132/5/5
f 137/1/6 139/4/6 143/3/6 141/2/6
f 140/5/7 144/7/7 143/6/7 139/4/7
f 144/8/8 142/11/8 141/10/8 143/9/8
f 142/12/9 144/14/9 140/5/9 138/13/9
f 138/13/10 140/5/10 139/4/10 137/1/10
f 130/13/7 134/12/7 142/12/7 138/13/7
f 129/1/7 130/13/7 138/13/7 137/1/7
f 134/11/7 133/10/7 141/10/7 142/11/7
f 133/2/7 129/1/7 137/1/7 141/2/7
f 54/11/3 53/10/3 155/10/3 156/11/3
f 5/2/1 1/1/1 145/1/1 147/2/1
f 50/13/4 54/12/4 156/12/4 154/13/4
f 146/13/7 148/12/7 152/12/7 150/13/7
f 145/1/7 146/13/7 150/13/7 149/1/7
f 148/11/7 147/10/7 151/10/7 152/11/7
f 147/2/7 145/1/7 149/1/7 151/2/7
f 154/13/7 156/12/7 160/12/7 158/13/7
f 153/1/7 154/13/7 158/13/7 157/1/7
f 156/11/7 155/10/7 159/10/7 160/11/7
f 155/2/7 153/1/7 157/1/7 159/2/7
f 162/13/7 164/12/7 168/12/7 166/13/7
f 161/1/7 162/13/7 166/13/7 165/1/7
f 164/11/7 163/10/7 167/10/7 168/11/7
f 163/2/7 161/1/7 165/1/7 167/2/7
f 151/2/1 149/1/1 217/1/1 219/2/1
f 160/11/3 159/10/3 223/10/3 224/11/3
f 166/13/4 168/12/4 228/12/4 226/13/4
f 171/1/1 169/2/1 170/3/1 172/4/1
f 175/1/1 173/2/1 174/3/1 176/4/1
f 179/1/1 177/2/1 178/3/1 180/4/1
f 83/4/5 81/1/5 175/1/5 176/4/5
f 135/6/2 131/4/2 180/4/2 178/6/2
f 85/10/3 87/9/3 174/9/3 173/10/3
f 175/1/5 81/1/5 183/1/5 189/1/5
f 35/4/5 33/1/5 171/1/5 172/4/5
f 87/6/2 83/4/2 176/4/2 174/6/2
f 37/10/3 39/9/3 170/9/3 169/10/3
f 177/2/1 179/1/1 191/1/1 192/2/1
f 39/6/2 35/4/2 172/4/2 170/6/2
f 181/1/11 182/2/11 194/2/11 193/1/11
f 182/10/12 188/10/12 200/10/12 194/10/12
f 188/2/13 187/1/13 199/1/13 200/2/13
f 171/1/5 33/1/5 181/1/5 187/1/5
f 33/1/4 37/2/4 182/2/4 181/1/4
f 133/10/3 177/10/3 192/10/3 186/10/3
f 179/1/5 129/1/5 185/1/5 191/1/5
f 169/2/1 171/1/1 187/1/1 188/2/1
f 129/1/4 133/2/4 186/2/4 185/1/4
f 85/10/3 173/10/3 190/10/3 184/10/3
f 173/2/1 175/1/1 189/1/1 190/2/1
f 37/10/3 169/10/3 188/10/3 182/10/3
f 195/1/7 196/2/7 202/2/7 201/1/7
f 193/1/7 194/2/7 200/2/7 199/1/7
f 197/1/7 198/2/7 204/2/7 203/1/7
f 186/10/14 192/10/14 204/10/14 198/10/14
f 190/2/13 189/1/13 201/1/13 202/2/13
f 187/1/15 181/1/15 193/1/15 199/1/15
f 183/1/11 184/2/11 196/2/11 195/1/11
f 184/10/16 190/10/16 202/10/16 196/10/16
f 192/2/13 191/1/13 203/1/13 204/2/13
f 185/1/11 186/2/11 198/2/11 197/1/11
f 189/1/17 183/1/17 195/1/17 201/1/17
f 191/1/18 185/1/18 197/1/18 203/1/18
f 211/15/7 209/16/7 210/17/7 212/18/7
f 215/15/7 213/16/7 214/19/7 216/18/7
f 207/20/7 205/16/7 206/17/7 208/18/7
f 167/2/1 165/1/1 225/1/1 227/2/1
f 157/1/5 158/13/5 222/13/5 221/1/5
f 152/11/3 151/10/3 219/10/3 220/11/3
f 158/13/4 160/12/4 224/12/4 222/13/4
f 168/11/3 167/10/3 227/10/3 228/11/3
f 159/2/1 157/1/1 221/1/1 223/2/1
f 149/1/5 150/13/5 218/13/5 217/1/5
f 165/1/5 166/13/5 226/13/5 225/1/5
f 150/13/4 152/12/4 220/12/4 218/13/4
f 206/17/19 205/16/19 217/1/19 218/13/19
f 205/16/20 207/20/20 219/2/20 217/1/20
f 207/20/21 208/18/21 220/12/21 219/2/21
f 208/18/22 206/17/22 218/13/22 220/12/22
f 210/17/19 209/16/19 221/1/19 222/13/19
f 209/16/20 211/15/20 223/2/20 221/1/20
f 211/15/21 212/18/21 224/12/21 223/2/21
f 212/18/22 210/17/22 222/13/22 224/12/22
f 214/19/19 213/16/19 225/1/19 226/13/19
f 213/16/20 215/15/20 227/2/20 225/1/20
f 215/15/21 216/18/21 228/12/21 227/2/21
f 216/18/22 214/19/22 226/13/22 228/12/22
