# Blender 4.1.1
# www.blender.org
mtllib Ranat-Shelf.mtl
o Cube
v 4.469203 4.008689 -1.000000
v 4.469203 0.008689 -1.000000
v 4.469203 4.008689 1.000000
v 4.469203 0.008689 1.000000
v -4.469203 4.008689 -1.000000
v -4.469203 0.008689 -1.000000
v -4.469203 4.008689 1.000000
v -4.469203 0.008689 1.000000
v 4.307060 3.895552 -1.000000
v 4.307060 0.121826 -1.000000
v 4.354451 3.916313 0.953812
v 4.354451 0.101065 0.953812
v -4.307060 3.895552 -1.000000
v -4.307060 0.121826 -1.000000
v -4.354451 3.916313 0.953812
v -4.354451 0.101065 0.953812
vn -0.0000 1.0000 -0.0000
vn -0.0000 -0.0000 1.0000
vn -1.0000 -0.0000 -0.0000
vn -0.0000 -1.0000 -0.0000
vn 1.0000 -0.0000 -0.0000
vn -0.0000 -0.9999 0.0106
vn -0.0000 -0.0000 -1.0000
vn 0.9997 -0.0000 0.0242
vn -0.0000 0.9999 0.0106
vn -0.9997 -0.0000 0.0242
vt 0.625000 0.500000
vt 0.875000 0.500000
vt 0.875000 0.750000
vt 0.625000 0.750000
vt 0.375000 0.750000
vt 0.625000 1.000000
vt 0.375000 1.000000
vt 0.375000 0.000000
vt 0.625000 0.000000
vt 0.625000 0.250000
vt 0.375000 0.250000
vt 0.125000 0.500000
vt 0.375000 0.500000
vt 0.125000 0.750000
s 0
usemtl Material
f 1/1/1 5/2/1 7/3/1 3/4/1
f 4/5/2 3/4/2 7/6/2 8/7/2
f 8/8/3 7/9/3 5/10/3 6/11/3
f 6/12/4 2/13/4 4/5/4 8/14/4
f 2/13/5 1/1/5 3/4/5 4/5/5
f 9/1/6 11/4/6 15/3/6 13/2/6
f 12/5/7 16/7/7 15/6/7 11/4/7
f 16/8/8 14/11/8 13/10/8 15/9/8
f 14/12/9 16/14/9 12/5/9 10/13/9
f 10/13/10 12/5/10 11/4/10 9/1/10
f 2/13/7 6/12/7 14/12/7 10/13/7
f 1/1/7 2/13/7 10/13/7 9/1/7
f 6/11/7 5/10/7 13/10/7 14/11/7
f 5/2/7 1/1/7 9/1/7 13/2/7
