# Blender 4.1.1
# www.blender.org
mtllib Door.mtl
o Cube.011
v -2.500000 0.000000 0.189942
v -2.500000 10.000000 0.189942
v -2.500000 0.000000 -0.189942
v -2.500000 10.000000 -0.189942
v 2.500000 0.000000 0.189942
v 2.500000 10.000000 0.189942
v 2.500000 0.000000 -0.189942
v 2.500000 10.000000 -0.189942
v 2.125409 5.247689 0.307156
v 1.958093 5.178385 0.307156
v 1.888789 5.011069 0.307156
v 1.958093 4.843754 0.307156
v 2.125409 4.774450 0.307156
v 2.292724 4.843754 0.307156
v 2.362028 5.011069 0.307156
v 2.292724 5.178385 0.307156
v 2.008967 5.127512 0.470508
v 2.125409 5.175744 0.470508
v 1.960735 5.011070 0.470508
v 2.008967 4.894628 0.470508
v 2.125409 4.846396 0.470508
v 2.241851 4.894628 0.470508
v 2.290082 5.011070 0.470508
v 2.241851 5.127512 0.470508
v 1.999868 5.136610 0.190748
v 2.125409 5.188611 0.190748
v 1.947868 5.011070 0.190748
v 1.999868 4.885529 0.190748
v 2.125409 4.833529 0.190748
v 2.250949 4.885529 0.190748
v 2.302950 5.011070 0.190748
v 2.250949 5.136610 0.190748
v 2.125409 5.236619 -0.308733
v 2.292724 5.167315 -0.308733
v 2.362028 5.000000 -0.308733
v 2.292724 4.832685 -0.308733
v 2.125409 4.763381 -0.308733
v 1.958093 4.832685 -0.308733
v 1.888789 5.000000 -0.308733
v 1.958093 5.167315 -0.308733
v 2.241850 5.116442 -0.472085
v 2.125408 5.164674 -0.472085
v 2.290082 5.000000 -0.472085
v 2.241850 4.883558 -0.472085
v 2.125408 4.835326 -0.472085
v 2.008966 4.883558 -0.472085
v 1.960735 5.000000 -0.472085
v 2.008966 5.116442 -0.472085
v 2.250949 5.125541 -0.192325
v 2.125408 5.177541 -0.192325
v 2.302950 5.000000 -0.192325
v 2.250949 4.874460 -0.192325
v 2.125408 4.822459 -0.192325
v 1.999868 4.874460 -0.192325
v 1.947867 5.000000 -0.192325
v 1.999868 5.125541 -0.192325
vn -1.0000 -0.0000 -0.0000
vn -0.0000 -0.0000 -1.0000
vn 1.0000 -0.0000 -0.0000
vn -0.0000 -0.0000 1.0000
vn -0.0000 -1.0000 -0.0000
vn -0.0000 1.0000 -0.0000
vn -0.3465 -0.8365 -0.4245
vn 0.3545 -0.8557 0.3769
vn -0.8557 -0.3545 0.3769
vn -0.3545 0.8557 0.3769
vn 0.3545 0.8557 0.3769
vn 0.8557 -0.3545 0.3769
vn -0.3545 -0.8557 0.3769
vn -0.8557 0.3545 0.3769
vn 0.8557 0.3545 0.3769
vn -0.8365 0.3465 -0.4245
vn 0.8365 0.3465 -0.4245
vn 0.3465 -0.8365 -0.4245
vn -0.8365 -0.3465 -0.4245
vn -0.3465 0.8365 -0.4245
vn 0.3465 0.8365 -0.4245
vn 0.8365 -0.3465 -0.4245
vn 0.3465 -0.8365 0.4245
vn -0.3545 -0.8557 -0.3769
vn 0.8557 -0.3545 -0.3769
vn 0.3545 0.8557 -0.3769
vn -0.3545 0.8557 -0.3769
vn -0.8557 -0.3545 -0.3769
vn 0.3545 -0.8557 -0.3769
vn 0.8557 0.3545 -0.3769
vn -0.8557 0.3545 -0.3769
vn 0.8365 0.3465 0.4245
vn -0.8365 0.3465 0.4245
vn -0.3465 -0.8365 0.4245
vn 0.8365 -0.3465 0.4245
vn 0.3465 0.8365 0.4245
vn -0.3465 0.8365 0.4245
vn -0.8365 -0.3465 0.4245
vt 0.019275 0.251953
vt 0.019275 0.003906
vt 0.080660 0.003906
vt 0.080660 0.251953
vt 0.991170 0.013046
vt 0.990039 0.992091
vt 0.430244 0.990114
vt 0.431375 0.011069
vt 0.080660 0.500000
vt 0.080660 0.748047
vt 0.019275 0.748047
vt 0.019275 0.500000
vt 0.080660 0.996094
vt 0.019275 0.996094
vt 0.324820 0.460588
vt 0.324805 0.449313
vt 0.347490 0.449272
vt 0.347533 0.457948
vt 0.309921 0.586582
vt 0.312368 0.591055
vt 0.308290 0.594217
vt 0.300075 0.594217
vt 0.292536 0.591055
vt 0.290089 0.586582
vt 0.294168 0.583419
vt 0.302382 0.583419
vt 0.324835 0.471893
vt 0.292958 0.466509
vt 0.292990 0.458500
vt 0.324797 0.442127
vt 0.293010 0.450490
vt 0.293008 0.445400
vt 0.324794 0.423513
vt 0.324795 0.434917
vt 0.292958 0.440310
vt 0.292856 0.432301
vt 0.324793 0.412016
vt 0.292742 0.424295
vt 0.324845 0.479141
vt 0.292923 0.471607
vt 0.324862 0.486464
vt 0.292840 0.476681
vt 0.348165 0.582381
vt 0.339308 0.582381
vt 0.331180 0.578971
vt 0.328542 0.574148
vt 0.332939 0.570738
vt 0.341796 0.570738
vt 0.349924 0.574148
vt 0.352562 0.578971
vt 0.347529 0.438258
vt 0.347481 0.443766
vt 0.347643 0.472138
vt 0.347755 0.477625
vt 0.347589 0.466622
vt 0.347635 0.429580
vt 0.347755 0.420905
vt 0.324820 0.512341
vt 0.324835 0.501035
vt 0.347589 0.506306
vt 0.347533 0.514980
vt 0.348374 0.598678
vt 0.350821 0.603151
vt 0.346743 0.606314
vt 0.338528 0.606314
vt 0.330989 0.603151
vt 0.328542 0.598678
vt 0.332621 0.595515
vt 0.340835 0.595515
vt 0.324805 0.523616
vt 0.293010 0.522439
vt 0.292990 0.514429
vt 0.324845 0.493787
vt 0.292958 0.506420
vt 0.292923 0.501322
vt 0.324794 0.549416
vt 0.324793 0.560913
vt 0.292742 0.548633
vt 0.292856 0.540628
vt 0.324795 0.538012
vt 0.292958 0.532619
vt 0.324797 0.530802
vt 0.293008 0.527529
vt 0.324862 0.486464
vt 0.292840 0.496247
vt 0.294486 0.557798
vt 0.303343 0.557798
vt 0.311471 0.561208
vt 0.314109 0.566031
vt 0.309712 0.569441
vt 0.300856 0.569441
vt 0.292728 0.566031
vt 0.290090 0.561208
vt 0.347755 0.495304
vt 0.347643 0.500791
vt 0.347481 0.529163
vt 0.347529 0.534671
vt 0.347490 0.523657
vt 0.347635 0.543349
vt 0.347755 0.552023
s 0
usemtl Material.022
f 1/1/1 2/2/1 4/3/1 3/4/1
f 3/5/2 4/6/2 8/7/2 7/8/2
f 7/9/3 8/10/3 6/11/3 5/12/3
f 5/5/4 6/6/4 2/7/4 1/8/4
f 3/4/5 7/9/5 5/12/5 1/1/5
f 8/10/6 4/13/6 2/14/6 6/11/6
f 13/15/7 12/16/7 28/17/7 29/18/7
f 17/19/4 19/20/4 20/21/4 21/22/4 22/23/4 23/24/4 24/25/4 18/26/4
f 13/15/8 14/27/8 22/28/8 21/29/8
f 11/30/9 12/16/9 20/31/9 19/32/9
f 9/33/10 10/34/10 17/35/10 18/36/10
f 16/37/11 9/33/11 18/36/11 24/38/11
f 14/27/12 15/39/12 23/40/12 22/28/12
f 12/16/13 13/15/13 21/29/13 20/31/13
f 10/34/14 11/30/14 19/32/14 17/35/14
f 15/39/15 16/41/15 24/42/15 23/40/15
f 25/43/2 26/44/2 32/45/2 31/46/2 30/47/2 29/48/2 28/49/2 27/50/2
f 11/30/16 10/34/16 25/51/16 27/52/16
f 16/41/17 15/39/17 31/53/17 32/54/17
f 14/27/18 13/15/18 29/18/18 30/55/18
f 12/16/19 11/30/19 27/52/19 28/17/19
f 10/34/20 9/33/20 26/56/20 25/51/20
f 9/33/21 16/37/21 32/57/21 26/56/21
f 15/39/22 14/27/22 30/55/22 31/53/22
f 37/58/23 36/59/23 52/60/23 53/61/23
f 41/62/2 43/63/2 44/64/2 45/65/2 46/66/2 47/67/2 48/68/2 42/69/2
f 37/58/24 38/70/24 46/71/24 45/72/24
f 35/73/25 36/59/25 44/74/25 43/75/25
f 33/76/26 34/77/26 41/78/26 42/79/26
f 40/80/27 33/76/27 42/79/27 48/81/27
f 38/70/28 39/82/28 47/83/28 46/71/28
f 36/59/29 37/58/29 45/72/29 44/74/29
f 34/84/30 35/73/30 43/75/30 41/85/30
f 39/82/31 40/80/31 48/81/31 47/83/31
f 49/86/4 50/87/4 56/88/4 55/89/4 54/90/4 53/91/4 52/92/4 51/93/4
f 35/73/32 34/84/32 49/94/32 51/95/32
f 40/80/33 39/82/33 55/96/33 56/97/33
f 38/70/34 37/58/34 53/61/34 54/98/34
f 36/59/35 35/73/35 51/95/35 52/60/35
f 34/77/36 33/76/36 50/99/36 49/100/36
f 33/76/37 40/80/37 56/97/37 50/99/37
f 39/82/38 38/70/38 54/98/38 55/96/38
